<svg width="35" height="35" viewBox="0 0 35 35" fill="none" xmlns="http://www.w3.org/2000/svg">
<path d="M33.5643 17.3554C33.5643 8.32257 26.2745 1 17.2821 1C8.28976 1 1 8.32257 1 17.3554C1 26.3883 8.28976 33.7108 17.2821 33.7108C26.2745 33.7108 33.5643 26.3883 33.5643 17.3554Z" stroke="white" stroke-width="1.5" stroke-miterlimit="10"/>
<path d="M19.3185 16.9257H12.7389V18.8165H17.1795C16.6576 21.1198 15.0319 22.5379 12.8587 22.5379C10.0095 22.5379 7.69939 20.2174 7.69939 17.3554C7.69939 14.4934 10.0095 12.1729 12.8587 12.1729C14.2105 12.1729 15.4426 12.6972 16.3667 13.5566L17.8212 12.2932C16.5463 11.0298 14.7923 10.2477 12.8587 10.2477C8.94857 10.2477 5.78284 13.4277 5.78284 17.3554C5.78284 21.2831 8.94857 24.4631 12.8587 24.4631C16.7688 24.4631 19.3185 21.5925 19.3185 17.6648V16.9343V16.9257Z" fill="white"/>
<path d="M28.7729 17.0116H26.0607V14.2786H24.3238V17.0116H21.6115V18.7477H24.3238V21.4722H26.0607V18.7477H28.7729V17.0116Z" fill="white"/>
</svg>
