<svg width="288" height="113" viewBox="0 0 288 113" fill="none" xmlns="http://www.w3.org/2000/svg">
<path d="M29.0583 26.9636H3.96461L9.32588 20.0508H29.6912C31.6645 20.0508 32.558 19.4779 32.558 18.0648C32.558 16.6517 31.6645 16.117 29.6912 16.117H15.0222C8.09725 16.117 4.89538 13.0235 4.89538 8.36406C4.93261 3.28452 8.32064 0 16.4742 0H39.8926L34.5313 7.02733H15.8413C13.9053 7.02733 12.9745 7.52383 12.9745 8.86055C12.9745 10.1973 13.9053 10.7702 15.8413 10.7702H30.5103C37.063 10.7702 40.6372 13.2144 40.6372 18.1412C40.6372 23.6409 37.2864 26.9636 29.0583 26.9636Z" fill="white"/>
<path d="M67.0237 20.0793H52.9076V26.9636H44.6018V13.1949H67.8431C70.4131 13.1949 71.9029 11.9328 71.9029 10.097C71.9029 8.26118 70.4131 7.0373 67.8431 7.0373H44.6018L50.1142 0H67.061C75.404 0 80.2832 4.13059 80.2832 10.1352C80.2832 16.1399 75.404 20.1175 67.0237 20.1175V20.0793Z" fill="white"/>
<path d="M155.217 26.9636L149.175 19.8217H136.265V26.9636H127.858V13.1763H151.502C154.091 13.1763 156.118 11.9923 156.118 10.1591C156.118 8.05852 154.354 7.02733 151.502 7.02733H127.858L133.338 0H150.826C156.981 0 164.787 1.94779 164.787 9.62439C164.787 13.8255 162.16 17.2628 157.694 18.1794C158.632 18.8669 159.645 19.8217 161.522 21.7313L166.513 26.9636H155.217Z" fill="white"/>
<path d="M197.655 6.98914H187.88V26.9636H179.394V6.98914H166.513L172.007 0H203.186L197.655 6.98914Z" fill="white"/>
<path d="M204.177 26.9636L209.533 20.0508H229.915C231.886 20.0508 232.779 19.4779 232.779 18.0648C232.779 16.6517 231.886 16.117 229.915 16.117H215.261C208.343 16.117 205.144 13.0235 205.144 8.36406C205.144 3.28452 208.529 0 216.711 0H240.106L234.75 7.02733H216.079C214.145 7.02733 213.215 7.52383 213.215 8.86055C213.215 10.1973 214.145 10.7702 216.079 10.7702H230.733C237.279 10.7702 240.85 13.2144 240.85 18.1412C240.85 23.6409 237.502 26.9636 229.282 26.9636H204.177Z" fill="white"/>
<path d="M103.594 0C90.0487 0 83.2566 4.29598 83.2566 13.9619C83.2566 23.6279 90.0103 27.9622 103.594 27.9622C117.179 27.9622 123.894 23.6279 123.894 13.9619C123.894 4.29598 117.063 0 103.594 0ZM103.594 20.9429C94.9605 20.9429 91.8522 19.7922 91.8522 14.0003C91.8522 8.20839 94.9605 7.09604 103.594 7.09604C112.228 7.09604 115.337 8.20839 115.337 14.0003C115.337 19.7922 112.228 20.9429 103.594 20.9429Z" fill="white"/>
<path d="M19.8417 44.9393C6.62639 44.9393 0 49.0818 0 58.4026C0 67.7233 6.58895 71.9029 19.8417 71.9029C33.0945 71.9029 39.646 67.7233 39.646 58.4026C39.646 49.0818 32.9822 44.9393 19.8417 44.9393ZM19.8417 65.1342C11.4184 65.1342 8.38594 64.0246 8.38594 58.4396C8.38594 52.8545 11.4184 51.7819 19.8417 51.7819C28.2651 51.7819 31.2975 52.8545 31.2975 58.4396C31.2975 64.0246 28.2651 65.1342 19.8417 65.1342Z" fill="white"/>
<path d="M76.3186 66.9836C76.3186 70.4604 74.1152 71.9029 71.646 71.9029C70.5823 71.9029 69.5566 71.681 68.2271 70.4974L51.3602 56.1464V71.496H43.6106V49.8216C43.6106 46.3448 45.8139 44.9393 48.2452 44.9393C49.2709 44.9393 50.2966 45.1612 51.6641 46.3448L68.531 60.6958V45.3461H76.3186V66.9836Z" fill="white"/>
<path d="M107.56 71.9029H81.2744V44.9393H112.916L107.447 51.9284H89.7598V55.1748H111.407L106.542 61.2855H89.7598V64.9519H112.991L107.56 71.9029Z" fill="white"/>
<path d="M147.312 64.9901H166.513L161.07 71.9029H147.312C137.825 71.9029 130.832 65.9831 130.832 58.1537C130.832 50.3244 137.825 44.9393 147.312 44.9393H166.513L161.07 51.9666H147.312C142.738 51.9666 139.299 54.6783 139.299 58.5357C139.299 62.3931 142.7 64.9901 147.312 64.9901Z" fill="white"/>
<path d="M192.921 71.9029H169.487V44.9393H177.725V64.9519H198.23L192.921 71.9029Z" fill="white"/>
<path d="M210.124 44.9393H201.204V71.9029H210.124V44.9393Z" fill="white"/>
<path d="M230.568 64.9901H249.77L244.327 71.9029H230.568C221.081 71.9029 214.089 65.9831 214.089 58.1537C214.089 50.3244 221.081 44.9393 230.568 44.9393H249.77L244.327 51.9666H230.568C225.995 51.9666 222.555 54.6783 222.555 58.5357C222.555 62.3931 225.957 64.9901 230.568 64.9901Z" fill="white"/>
<path d="M274.543 71.9029L266.24 64.7991C263.397 62.3931 262.108 61.2091 261.16 60.2925C261.198 61.5528 261.274 62.8895 261.274 64.1499V71.9029H252.743V44.9393H261.274V51.2028C261.274 52.845 261.198 54.5255 261.122 55.9004C262.184 54.9456 263.662 53.5707 266.165 51.5083L274.088 44.9393H286.41L275.908 52.6923C272.268 55.4039 270.562 56.5879 268.818 57.6572C270.373 58.6884 272.496 60.2161 276.06 63.0041L287.434 71.9029H274.543Z" fill="white"/>
<path d="M13.6628 112.35L18.744 105.417H25.5943C27.2127 105.417 29.1323 105.417 30.4496 105.493C29.6969 104.536 28.5677 102.85 27.6644 101.586L22.7714 94.4231L9.97424 112.35H0L17.502 87.9114C18.6311 86.3409 20.3249 84.8853 22.9596 84.8853C25.5943 84.8853 27.1374 86.226 28.3419 87.9114L45.3922 112.35H13.6628ZM80.7348 112.809C78.5894 112.809 77.1215 111.737 76.1053 109.936L71.7392 102.314C69.368 98.1387 68.2765 96.1468 67.3355 94.1933C66.4698 96.1468 65.3783 98.1004 63.0071 102.276L58.641 109.975C57.6624 111.698 56.1945 112.848 54.0114 112.848C51.8284 112.848 50.0217 111.622 49.269 109.132L42.3435 85.3833H50.7745L53.3339 94.8062C54.1996 97.8322 54.7642 100.054 55.1782 102.237C56.0816 100.322 57.1354 98.2919 59.0174 94.7679L62.6683 87.988C64.0986 85.3067 65.4912 84.9619 67.4861 84.9619C69.4809 84.9619 70.9488 85.345 72.3791 87.988L75.9924 94.8062C78.0249 98.5217 78.9658 100.437 79.8315 102.237C80.2832 100.092 80.8854 97.7939 81.7135 94.8062L84.2729 85.3833H92.5157L85.4773 109.132C84.7622 111.622 82.8802 112.848 80.7348 112.848V112.809ZM102.678 112.35L107.759 105.417H114.61C116.228 105.417 118.148 105.417 119.465 105.493C118.75 104.536 117.583 102.85 116.68 101.586L111.787 94.4231L98.9896 112.35H89.0154L106.48 87.9114C107.609 86.3409 109.303 84.8853 111.937 84.8853C114.572 84.8853 116.115 86.226 117.32 87.9114L134.37 112.35H102.641H102.678ZM150.63 103.425V112.35H142.161V103.386L125.525 85.3067H136.365L142.876 92.8144C143.742 93.772 146 96.2617 146.602 97.0661C147.129 96.3 148.07 95.1126 150.028 92.776L156.2 85.3067H166.777L150.592 103.425H150.63Z" fill="white"/>
</svg>
