<svg width="160" height="75" viewBox="0 0 160 75" fill="none" xmlns="http://www.w3.org/2000/svg">
<path d="M37 0V65" stroke="white" stroke-dasharray="2 2"/>
<path d="M2.96234 70.3576C3.74521 71.2353 4.28161 72.386 4.43626 73.6651L155.187 74.6071C155.356 73.328 155.902 72.1826 156.695 71.3156C157.487 70.4486 158.526 69.8545 159.681 69.6832L159.696 67.0875C159.415 66.9698 159.164 66.7824 158.956 66.5523C158.579 66.1295 158.347 65.5461 158.347 64.8985C158.347 64.2563 158.589 63.6729 158.971 63.2555C159.178 63.0253 159.43 62.8434 159.715 62.731V61.4625C159.439 61.3448 159.193 61.1575 158.985 60.9273C158.608 60.5045 158.376 59.9212 158.376 59.2736C158.376 58.6313 158.618 58.048 159 57.6305C159.207 57.4004 159.459 57.2184 159.744 57.106V55.8376C159.468 55.7198 159.222 55.5325 159.014 55.3024C158.637 54.8796 158.405 54.2962 158.405 53.6486C158.405 53.0064 158.647 52.423 159.029 52.0055C159.236 51.7754 159.488 51.5934 159.773 51.481V50.2126C159.497 50.0949 159.251 49.9075 159.043 49.6774C158.666 49.2546 158.434 48.6712 158.434 48.0236C158.434 47.3814 158.676 46.798 159.058 46.3806C159.265 46.1504 159.517 45.9685 159.802 45.8561L159.812 43.5975C158.652 43.4102 157.618 42.8001 156.83 41.9223C155.878 40.8573 155.293 39.3908 155.303 37.7745C155.312 36.1582 155.912 34.6971 156.873 33.6428C157.666 32.7757 158.71 32.1817 159.87 32.0051L159.884 28.9705C159.604 28.8527 159.352 28.6654 159.145 28.4353C158.768 28.0124 158.536 27.4291 158.536 26.7815C158.536 26.1392 158.777 25.5559 159.159 25.1384C159.367 24.9083 159.618 24.7263 159.903 24.6139V23.3455C159.628 23.2277 159.381 23.0404 159.174 22.8103C158.797 22.3875 158.565 21.8041 158.565 21.1565C158.565 20.5143 158.806 19.9309 159.188 19.5134C159.396 19.2833 159.647 19.1013 159.932 18.989V17.7205C159.657 17.6028 159.41 17.4155 159.203 17.1853C158.826 16.7625 158.594 16.1791 158.594 15.5315C158.594 14.8893 158.835 14.3059 159.217 13.8885C159.425 13.6583 159.676 13.4764 159.961 13.364V12.0956C159.686 11.9778 159.439 11.7905 159.232 11.5604C158.855 11.1375 158.623 10.5542 158.623 9.90658C158.623 9.26434 158.864 8.68097 159.246 8.26351C159.454 8.03337 159.705 7.85141 159.99 7.73901L160 5.91933C158.845 5.73201 157.811 5.12723 157.028 4.2495C156.245 3.37177 155.709 2.22109 155.554 0.941955L4.81319 0C4.64405 1.27913 4.09798 2.42446 3.30545 3.29149C2.51291 4.15852 1.47392 4.75259 0.318947 4.92385L0.309281 6.74354C0.589568 6.86128 0.840859 7.0486 1.04866 7.27874C1.42559 7.70155 1.65756 8.28492 1.65756 8.93251C1.65756 9.57476 1.41593 10.1581 1.03416 10.5756C0.826361 10.8057 0.57507 10.9877 0.289951 11.1001V12.3685C0.565405 12.4863 0.811864 12.6736 1.01966 12.9037C1.3966 13.3265 1.62856 13.9099 1.62856 14.5575C1.62856 15.1997 1.38693 15.7831 1.00516 16.2006C0.797366 16.4307 0.546075 16.6127 0.260956 16.725V17.9935C0.53641 18.1112 0.782869 18.2985 0.990667 18.5287C1.3676 18.9515 1.59956 19.5349 1.59956 20.1824C1.59956 20.83 1.35794 21.4081 0.97617 21.8255C0.768371 22.0557 0.51708 22.2376 0.231961 22.35V23.6184C0.507415 23.7362 0.753874 23.9235 0.961672 24.1536C1.33861 24.5765 1.57057 25.1598 1.57057 25.8074C1.57057 26.4497 1.32894 27.033 0.947174 27.4505C0.739376 27.6806 0.488085 27.8626 0.202966 27.975L0.188468 31.0096C1.34827 31.1969 2.38243 31.807 3.17014 32.6848C4.12214 33.7498 4.70688 35.2163 4.69721 36.8326C4.68755 38.4489 4.08831 39.91 3.12664 40.9643C2.33411 41.8314 1.29028 42.4254 0.130478 42.602L0.120813 44.8606C0.401099 44.9783 0.652391 45.1657 0.860189 45.3958C1.23713 45.8186 1.46909 46.402 1.46909 47.0496C1.46909 47.6918 1.22746 48.2752 0.845692 48.6926C0.637893 48.9228 0.386602 49.1047 0.101483 49.2171V50.4856C0.376937 50.6033 0.623395 50.7906 0.831194 51.0208C1.20813 51.4436 1.44009 52.0269 1.44009 52.6745C1.44009 53.3168 1.19847 53.9001 0.816696 54.3176C0.608898 54.5477 0.357607 54.7297 0.0724878 54.8421V56.1105C0.347942 56.2283 0.5944 56.4156 0.802199 56.6457C1.17914 57.0685 1.4111 57.6519 1.4111 58.2995C1.4111 58.9417 1.16947 59.5251 0.787701 59.9426C0.579903 60.1727 0.328612 60.3547 0.0434927 60.4671V61.7355C0.318947 61.8532 0.565405 62.0406 0.773204 62.2707C1.15014 62.6935 1.3821 63.2769 1.3821 63.9245C1.3821 64.5667 1.14048 65.1501 0.758706 65.5675C0.550908 65.7977 0.294784 65.9796 0.0144976 66.092L0 68.6878C1.15497 68.8751 2.18913 69.4799 2.972 70.3576H2.96234Z" fill="url(#paint0_linear_991_2)"/>
<mask id="mask0_991_2" style="mask-type:alpha" maskUnits="userSpaceOnUse" x="0" y="0" width="160" height="75">
<path d="M2.95854 70.7281C3.7404 71.6105 4.27613 72.7672 4.43057 74.0531L154.988 75C155.157 73.7141 155.702 72.5628 156.494 71.6912C157.285 70.8196 158.323 70.2224 159.476 70.0502L159.491 67.4408C159.211 67.3225 158.96 67.1342 158.752 66.9028C158.376 66.4778 158.144 65.8913 158.144 65.2403C158.144 64.5947 158.386 64.0083 158.767 63.5886C158.974 63.3573 159.225 63.1743 159.51 63.0613V61.7862C159.235 61.6679 158.989 61.4796 158.781 61.2482C158.405 60.8232 158.173 60.2367 158.173 59.5857C158.173 58.9401 158.415 58.3537 158.796 57.934C159.003 57.7027 159.254 57.5197 159.539 57.4067V56.1316C159.264 56.0133 159.018 55.825 158.81 55.5936C158.434 55.1686 158.202 54.5821 158.202 53.9311C158.202 53.2855 158.444 52.6991 158.825 52.2794C159.032 52.0481 159.283 51.8651 159.568 51.7522V50.4771C159.293 50.3587 159.047 50.1704 158.839 49.939C158.463 49.514 158.231 48.9276 158.231 48.2766C158.231 47.6309 158.472 47.0445 158.854 46.6248C159.061 46.3935 159.312 46.2105 159.597 46.0976L159.607 43.8271C158.448 43.6388 157.416 43.0255 156.629 42.1431C155.678 41.0725 155.094 39.5983 155.104 37.9735C155.113 36.3486 155.712 34.8798 156.672 33.8199C157.464 32.9484 158.506 32.3512 159.665 32.1736L159.679 29.123C159.399 29.0047 159.148 28.8164 158.941 28.585C158.564 28.16 158.333 27.5735 158.333 26.9225C158.333 26.2769 158.574 25.6905 158.955 25.2708C159.163 25.0395 159.414 24.8565 159.698 24.7435V23.4684C159.423 23.3501 159.177 23.1618 158.97 22.9304C158.593 22.5054 158.361 21.9189 158.361 21.2679C158.361 20.6223 158.603 20.0359 158.984 19.6162C159.192 19.3849 159.443 19.2019 159.727 19.089V17.8138C159.452 17.6955 159.206 17.5072 158.999 17.2758C158.622 16.8508 158.39 16.2643 158.39 15.6133C158.39 14.9677 158.632 14.3813 159.013 13.9616C159.221 13.7303 159.472 13.5473 159.756 13.4344V12.1593C159.481 12.0409 159.235 11.8526 159.028 11.6212C158.651 11.1962 158.419 10.6098 158.419 9.95875C158.419 9.31313 158.661 8.72669 159.042 8.30703C159.25 8.07568 159.5 7.89276 159.785 7.77977L159.795 5.9505C158.641 5.7622 157.609 5.15423 156.827 4.27188C156.045 3.38953 155.509 2.23278 155.355 0.946915L4.80702 0C4.6381 1.28587 4.09273 2.43723 3.30121 3.30882C2.50969 4.18042 1.47203 4.77762 0.318538 4.94979L0.308885 6.77905C0.588812 6.89742 0.839781 7.08573 1.04731 7.31707C1.42377 7.74211 1.65543 8.32855 1.65543 8.97956C1.65543 9.62518 1.41411 10.2116 1.03283 10.6313C0.825302 10.8626 0.574333 11.0456 0.28958 11.1585V12.4336C0.56468 12.552 0.810823 12.7403 1.01836 12.9717C1.39481 13.3967 1.62647 13.9831 1.62647 14.6341C1.62647 15.2798 1.38516 15.8662 1.00388 16.2859C0.796344 16.5172 0.545375 16.7001 0.260622 16.8131V18.0882C0.535722 18.2066 0.781865 18.3949 0.989397 18.6263C1.36585 19.0513 1.59751 19.6377 1.59751 20.2887C1.59751 20.9397 1.3562 21.5208 0.974918 21.9405C0.767386 22.1718 0.516417 22.3547 0.231664 22.4677V23.7428C0.506764 23.8612 0.752907 24.0495 0.960439 24.2808C1.33689 24.7059 1.56856 25.2923 1.56856 25.9433C1.56856 26.589 1.32724 27.1754 0.94596 27.5951C0.738428 27.8264 0.487459 28.0093 0.202706 28.1223L0.188227 31.1729C1.34655 31.3612 2.37938 31.9745 3.16607 32.8569C4.11686 33.9276 4.70084 35.4017 4.69119 37.0265C4.68154 38.6514 4.08307 40.1202 3.12263 41.1801C2.33112 42.0517 1.28863 42.6489 0.130311 42.8264L0.120658 45.0968C0.400585 45.2152 0.651554 45.4035 0.859086 45.6349C1.23554 46.0599 1.4672 46.6464 1.4672 47.2974C1.4672 47.943 1.22589 48.5294 0.844607 48.9491C0.637075 49.1804 0.386106 49.3633 0.101353 49.4763V50.7514C0.376454 50.8698 0.622596 51.0581 0.830128 51.2895C1.20658 51.7145 1.43825 52.3009 1.43825 52.9519C1.43825 53.5976 1.19693 54.184 0.815649 54.6037C0.608117 54.835 0.357148 55.0179 0.0723949 55.1309V56.406C0.347496 56.5244 0.593638 56.7127 0.80117 56.944C1.17762 57.3691 1.40929 57.9555 1.40929 58.6065C1.40929 59.2522 1.16797 59.8386 0.786691 60.2583C0.579159 60.4896 0.32819 60.6725 0.0434369 60.7855V62.0606C0.318538 62.179 0.56468 62.3673 0.772212 62.5986C1.14867 63.0237 1.38033 63.6101 1.38033 64.2611C1.38033 64.9068 1.13901 65.4932 0.757733 65.9128C0.550201 66.1442 0.294406 66.3271 0.014479 66.4401L0 69.0495C1.15349 69.2378 2.18633 69.8458 2.96819 70.7281H2.95854Z" fill="url(#paint1_linear_991_2)"/>
</mask>
<g mask="url(#mask0_991_2)">
<ellipse cx="53.1511" cy="54.5024" rx="53.1511" ry="54.5024" transform="matrix(0.844594 -0.535408 0.444413 0.895822 30.8376 -40.2679)" fill="url(#paint2_linear_991_2)" fill-opacity="0.5"/>
<ellipse cx="42.0084" cy="44.7711" rx="42.0084" ry="44.7711" transform="matrix(0.844594 -0.535408 0.444413 0.895822 -31.7721 65.0537)" fill="url(#paint3_linear_991_2)" fill-opacity="0.25"/>
</g>
<path d="M37 1L37 75" stroke="white" stroke-dasharray="2 2"/>
<path d="M46.888 22V13.84H49.708L51.148 19.792L52.588 13.84H55.408V22H53.752V15.688H53.572L51.976 21.64H50.32L48.724 15.688H48.544V22H46.888ZM61.6408 17.872V20.368C61.6568 20.56 61.6888 20.696 61.7368 20.776C61.7848 20.848 61.8848 20.9 62.0368 20.932L61.9888 22.144C61.5808 22.144 61.2528 22.116 61.0048 22.06C60.7648 22.004 60.5208 21.892 60.2728 21.724C59.6968 22.004 59.1088 22.144 58.5088 22.144C57.2688 22.144 56.6488 21.488 56.6488 20.176C56.6488 19.536 56.8208 19.084 57.1648 18.82C57.5088 18.548 58.0368 18.388 58.7488 18.34L60.0328 18.244V17.872C60.0328 17.624 59.9768 17.456 59.8648 17.368C59.7528 17.272 59.5728 17.224 59.3248 17.224L57.0688 17.32L57.0208 16.204C57.8768 15.972 58.6888 15.856 59.4568 15.856C60.2328 15.856 60.7888 16.016 61.1248 16.336C61.4688 16.656 61.6408 17.168 61.6408 17.872ZM58.9408 19.456C58.4928 19.496 58.2688 19.736 58.2688 20.176C58.2688 20.616 58.4648 20.836 58.8568 20.836C59.1608 20.836 59.4928 20.788 59.8528 20.692L60.0328 20.644V19.36L58.9408 19.456ZM63.1737 22V16H64.7697V16.636C65.4417 16.236 66.0817 15.976 66.6897 15.856V17.476C66.0417 17.612 65.4857 17.752 65.0217 17.896L64.7817 17.98V22H63.1737ZM67.6385 22V16H69.2345V16.636C69.9065 16.236 70.5465 15.976 71.1545 15.856V17.476C70.5065 17.612 69.9505 17.752 69.4865 17.896L69.2465 17.98V22H67.6385ZM72.1034 22V16H73.7114V22H72.1034ZM72.1034 15.232V13.6H73.7114V15.232H72.1034ZM75.5211 16.684C75.9451 16.132 76.6531 15.856 77.6451 15.856C78.6371 15.856 79.3451 16.132 79.7691 16.684C80.1931 17.228 80.4051 17.996 80.4051 18.988C80.4051 21.092 79.4851 22.144 77.6451 22.144C75.8051 22.144 74.8851 21.092 74.8851 18.988C74.8851 17.996 75.0971 17.228 75.5211 16.684ZM76.7571 20.344C76.9251 20.632 77.2211 20.776 77.6451 20.776C78.0691 20.776 78.3611 20.632 78.5211 20.344C78.6891 20.056 78.7731 19.604 78.7731 18.988C78.7731 18.372 78.6891 17.924 78.5211 17.644C78.3611 17.364 78.0691 17.224 77.6451 17.224C77.2211 17.224 76.9251 17.364 76.7571 17.644C76.5971 17.924 76.5171 18.372 76.5171 18.988C76.5171 19.604 76.5971 20.056 76.7571 20.344ZM84.9078 17.368H83.4318V19.828C83.4318 20.068 83.4358 20.24 83.4438 20.344C83.4598 20.44 83.5038 20.524 83.5758 20.596C83.6558 20.668 83.7758 20.704 83.9358 20.704L84.8478 20.68L84.9198 21.964C84.3838 22.084 83.9758 22.144 83.6958 22.144C82.9758 22.144 82.4838 21.984 82.2198 21.664C81.9558 21.336 81.8238 20.736 81.8238 19.864V17.368H81.1158V16H81.8238V14.332H83.4318V16H84.9078V17.368ZM93.4277 22V18.616H90.3917V22H88.7357V13.84H90.3917V17.176H93.4277V13.84H95.0837V22H93.4277ZM96.9664 16.684C97.3904 16.132 98.0984 15.856 99.0904 15.856C100.082 15.856 100.79 16.132 101.214 16.684C101.638 17.228 101.85 17.996 101.85 18.988C101.85 21.092 100.93 22.144 99.0904 22.144C97.2504 22.144 96.3304 21.092 96.3304 18.988C96.3304 17.996 96.5424 17.228 96.9664 16.684ZM98.2024 20.344C98.3704 20.632 98.6664 20.776 99.0904 20.776C99.5144 20.776 99.8064 20.632 99.9664 20.344C100.134 20.056 100.218 19.604 100.218 18.988C100.218 18.372 100.134 17.924 99.9664 17.644C99.8064 17.364 99.5144 17.224 99.0904 17.224C98.6664 17.224 98.3704 17.364 98.2024 17.644C98.0424 17.924 97.9624 18.372 97.9624 18.988C97.9624 19.604 98.0424 20.056 98.2024 20.344ZM106.353 17.368H104.877V19.828C104.877 20.068 104.881 20.24 104.889 20.344C104.905 20.44 104.949 20.524 105.021 20.596C105.101 20.668 105.221 20.704 105.381 20.704L106.293 20.68L106.365 21.964C105.829 22.084 105.421 22.144 105.141 22.144C104.421 22.144 103.929 21.984 103.665 21.664C103.401 21.336 103.269 20.736 103.269 19.864V17.368H102.561V16H103.269V14.332H104.877V16H106.353V17.368ZM108.72 19.684C108.728 20.052 108.824 20.32 109.008 20.488C109.2 20.648 109.472 20.728 109.824 20.728C110.568 20.728 111.232 20.704 111.816 20.656L112.152 20.62L112.176 21.808C111.256 22.032 110.424 22.144 109.68 22.144C108.776 22.144 108.12 21.904 107.712 21.424C107.304 20.944 107.1 20.164 107.1 19.084C107.1 16.932 107.984 15.856 109.752 15.856C111.496 15.856 112.368 16.76 112.368 18.568L112.248 19.684H108.72ZM110.784 18.46C110.784 17.98 110.708 17.648 110.556 17.464C110.404 17.272 110.136 17.176 109.752 17.176C109.376 17.176 109.108 17.276 108.948 17.476C108.796 17.668 108.716 17.996 108.708 18.46H110.784ZM113.589 22V13.6H115.197V22H113.589Z" fill="#216774"/>
<path d="M48.112 55.72V61H47.496V56.408L46.136 57.304L45.856 56.84L47.536 55.72H48.112ZM50.0526 55.856C50.5539 55.7067 51.0899 55.632 51.6606 55.632C52.2366 55.632 52.6526 55.7413 52.9086 55.96C53.1646 56.1787 53.2926 56.528 53.2926 57.008C53.2926 57.2533 53.2579 57.432 53.1886 57.544C53.1246 57.6507 53.0712 57.7333 53.0286 57.792C52.9912 57.8507 52.9406 57.9067 52.8766 57.96C52.7592 58.0507 52.6659 58.1147 52.5966 58.152L52.5086 58.208C52.8179 58.32 53.0472 58.464 53.1966 58.64C53.3459 58.8107 53.4206 59.0933 53.4206 59.488C53.4206 60.0267 53.2819 60.4267 53.0046 60.688C52.7326 60.9493 52.3006 61.08 51.7086 61.08C51.2392 61.08 50.7432 61.0267 50.2206 60.92L49.9726 60.864L50.0286 60.36C50.6046 60.4773 51.1432 60.536 51.6446 60.536C52.4072 60.5307 52.7886 60.1893 52.7886 59.512C52.7886 58.8773 52.4259 58.5467 51.7006 58.52H50.6366V57.992H51.7006C51.9246 57.992 52.1406 57.904 52.3486 57.728C52.5566 57.5467 52.6606 57.3093 52.6606 57.016C52.6606 56.7227 52.5779 56.512 52.4126 56.384C52.2472 56.2507 51.9699 56.184 51.5806 56.184C51.1539 56.184 50.7326 56.224 50.3166 56.304L50.1086 56.344L50.0526 55.856ZM54.4971 59.08V58.52H56.9211V59.08H54.4971ZM59.6929 55.632C60.1303 55.632 60.4849 55.7147 60.7569 55.88C61.3329 56.2213 61.6209 57.0747 61.6209 58.44C61.6209 59.4053 61.4609 60.088 61.1409 60.488C60.8209 60.8827 60.3409 61.08 59.7009 61.08C59.0609 61.08 58.5783 60.8853 58.2529 60.496C57.9329 60.1013 57.7729 59.4027 57.7729 58.4C57.7729 57.392 57.9303 56.68 58.2449 56.264C58.5649 55.8427 59.0476 55.632 59.6929 55.632ZM59.7009 56.184C59.3969 56.184 59.1569 56.248 58.9809 56.376C58.6023 56.6373 58.4129 57.328 58.4129 58.448C58.4129 59.2373 58.5169 59.784 58.7249 60.088C58.9329 60.3867 59.2583 60.536 59.7009 60.536C60.1436 60.536 60.4689 60.384 60.6769 60.08C60.8849 59.776 60.9889 59.2133 60.9889 58.392C60.9889 57.5653 60.8876 56.992 60.6849 56.672C60.4876 56.3467 60.1596 56.184 59.7009 56.184ZM62.5135 55.856C63.0148 55.7067 63.5508 55.632 64.1215 55.632C64.6975 55.632 65.1135 55.7413 65.3695 55.96C65.6255 56.1787 65.7535 56.528 65.7535 57.008C65.7535 57.2533 65.7188 57.432 65.6495 57.544C65.5855 57.6507 65.5322 57.7333 65.4895 57.792C65.4522 57.8507 65.4015 57.9067 65.3375 57.96C65.2202 58.0507 65.1268 58.1147 65.0575 58.152L64.9695 58.208C65.2788 58.32 65.5082 58.464 65.6575 58.64C65.8068 58.8107 65.8815 59.0933 65.8815 59.488C65.8815 60.0267 65.7428 60.4267 65.4655 60.688C65.1935 60.9493 64.7615 61.08 64.1695 61.08C63.7002 61.08 63.2042 61.0267 62.6815 60.92L62.4335 60.864L62.4895 60.36C63.0655 60.4773 63.6042 60.536 64.1055 60.536C64.8682 60.5307 65.2495 60.1893 65.2495 59.512C65.2495 58.8773 64.8868 58.5467 64.1615 58.52H63.0975V57.992H64.1615C64.3855 57.992 64.6015 57.904 64.8095 57.728C65.0175 57.5467 65.1215 57.3093 65.1215 57.016C65.1215 56.7227 65.0388 56.512 64.8735 56.384C64.7082 56.2507 64.4308 56.184 64.0415 56.184C63.6148 56.184 63.1935 56.224 62.7775 56.304L62.5695 56.344L62.5135 55.856ZM66.9581 59.08V58.52H69.3821V59.08H66.9581ZM73.8499 61H70.4739V60.48L72.0179 58.856C72.2845 58.5787 72.4792 58.368 72.6019 58.224C72.7245 58.08 72.8339 57.9093 72.9299 57.712C73.0312 57.5147 73.0819 57.3173 73.0819 57.12C73.0819 56.7787 72.9885 56.5387 72.8019 56.4C72.6152 56.2613 72.3245 56.192 71.9299 56.192C71.5832 56.192 71.1965 56.2373 70.7699 56.328L70.5619 56.368L70.5139 55.856C71.0205 55.712 71.5432 55.64 72.0819 55.64C72.6205 55.64 73.0259 55.7547 73.2979 55.984C73.5752 56.208 73.7139 56.5653 73.7139 57.056C73.7139 57.4293 73.6312 57.7547 73.4659 58.032C73.3005 58.3093 73.0152 58.6427 72.6099 59.032L71.2019 60.464H73.8499V61ZM76.6304 55.632C77.0678 55.632 77.4224 55.7147 77.6944 55.88C78.2704 56.2213 78.5584 57.0747 78.5584 58.44C78.5584 59.4053 78.3984 60.088 78.0784 60.488C77.7584 60.8827 77.2784 61.08 76.6384 61.08C75.9984 61.08 75.5158 60.8853 75.1904 60.496C74.8704 60.1013 74.7104 59.4027 74.7104 58.4C74.7104 57.392 74.8678 56.68 75.1824 56.264C75.5024 55.8427 75.9851 55.632 76.6304 55.632ZM76.6384 56.184C76.3344 56.184 76.0944 56.248 75.9184 56.376C75.5398 56.6373 75.3504 57.328 75.3504 58.448C75.3504 59.2373 75.4544 59.784 75.6624 60.088C75.8704 60.3867 76.1958 60.536 76.6384 60.536C77.0811 60.536 77.4064 60.384 77.6144 60.08C77.8224 59.776 77.9264 59.2133 77.9264 58.392C77.9264 57.5653 77.8251 56.992 77.6224 56.672C77.4251 56.3467 77.0971 56.184 76.6384 56.184ZM82.803 61H79.427V60.48L80.971 58.856C81.2377 58.5787 81.4323 58.368 81.555 58.224C81.6777 58.08 81.787 57.9093 81.883 57.712C81.9843 57.5147 82.035 57.3173 82.035 57.12C82.035 56.7787 81.9417 56.5387 81.755 56.4C81.5683 56.2613 81.2777 56.192 80.883 56.192C80.5363 56.192 80.1497 56.2373 79.723 56.328L79.515 56.368L79.467 55.856C79.9737 55.712 80.4963 55.64 81.035 55.64C81.5737 55.64 81.979 55.7547 82.251 55.984C82.5283 56.208 82.667 56.5653 82.667 57.056C82.667 57.4293 82.5843 57.7547 82.419 58.032C82.2537 58.3093 81.9683 58.6427 81.563 59.032L80.155 60.464H82.803V61ZM83.9276 55.856C84.4289 55.7067 84.9649 55.632 85.5356 55.632C86.1116 55.632 86.5276 55.7413 86.7836 55.96C87.0396 56.1787 87.1676 56.528 87.1676 57.008C87.1676 57.2533 87.1329 57.432 87.0636 57.544C86.9996 57.6507 86.9462 57.7333 86.9036 57.792C86.8662 57.8507 86.8156 57.9067 86.7516 57.96C86.6342 58.0507 86.5409 58.1147 86.4716 58.152L86.3836 58.208C86.6929 58.32 86.9222 58.464 87.0716 58.64C87.2209 58.8107 87.2956 59.0933 87.2956 59.488C87.2956 60.0267 87.1569 60.4267 86.8796 60.688C86.6076 60.9493 86.1756 61.08 85.5836 61.08C85.1142 61.08 84.6182 61.0267 84.0956 60.92L83.8476 60.864L83.9036 60.36C84.4796 60.4773 85.0182 60.536 85.5196 60.536C86.2822 60.5307 86.6636 60.1893 86.6636 59.512C86.6636 58.8773 86.3009 58.5467 85.5756 58.52H84.5116V57.992H85.5756C85.7996 57.992 86.0156 57.904 86.2236 57.728C86.4316 57.5467 86.5356 57.3093 86.5356 57.016C86.5356 56.7227 86.4529 56.512 86.2876 56.384C86.1222 56.2507 85.8449 56.184 85.4556 56.184C85.0289 56.184 84.6076 56.224 84.1916 56.304L83.9836 56.344L83.9276 55.856Z" fill="#0C91AA"/>
<rect x="99" y="50" width="45" height="16" rx="3" fill="#10A9C6"/>
<path d="M105.936 62.132C104.688 62.132 103.816 61.796 103.32 61.124C102.832 60.452 102.588 59.392 102.588 57.944C102.588 56.488 102.836 55.408 103.332 54.704C103.836 54 104.704 53.648 105.936 53.648C107.168 53.648 108.032 54 108.528 54.704C109.024 55.4 109.272 56.476 109.272 57.932C109.272 58.892 109.168 59.668 108.96 60.26C108.76 60.852 108.428 61.304 107.964 61.616L108.972 63.236L107.736 63.812L106.668 62.06C106.516 62.108 106.272 62.132 105.936 62.132ZM104.376 60.272C104.648 60.736 105.168 60.968 105.936 60.968C106.704 60.968 107.22 60.74 107.484 60.284C107.756 59.82 107.892 59.04 107.892 57.944C107.892 56.848 107.752 56.052 107.472 55.556C107.2 55.06 106.688 54.812 105.936 54.812C105.184 54.812 104.668 55.06 104.388 55.556C104.108 56.052 103.968 56.844 103.968 57.932C103.968 59.02 104.104 59.8 104.376 60.272ZM112.155 59.072V62H110.823V53.78H113.943C115.799 53.78 116.727 54.652 116.727 56.396C116.727 57.564 116.279 58.356 115.383 58.772L116.739 62H115.275L114.087 59.072H112.155ZM115.359 56.408C115.359 55.424 114.887 54.932 113.943 54.932H112.155V57.92H113.967C114.447 57.92 114.799 57.784 115.023 57.512C115.247 57.232 115.359 56.864 115.359 56.408ZM120.722 54.332C121.466 54.076 122.282 53.948 123.17 53.948C124.058 53.948 124.702 54.12 125.102 54.464C125.51 54.8 125.714 55.336 125.714 56.072C125.714 56.392 125.65 56.68 125.522 56.936C125.402 57.192 125.278 57.38 125.15 57.5C125.022 57.612 124.862 57.732 124.67 57.86C125.094 58.06 125.398 58.28 125.582 58.52C125.774 58.752 125.87 59.132 125.87 59.66C125.87 60.5 125.658 61.124 125.234 61.532C124.818 61.932 124.15 62.132 123.23 62.132C122.87 62.132 122.474 62.1 122.042 62.036C121.61 61.98 121.266 61.92 121.01 61.856L120.638 61.76L120.722 60.728C121.602 60.888 122.378 60.968 123.05 60.968C124.01 60.96 124.49 60.536 124.49 59.696C124.49 59.312 124.366 59.02 124.118 58.82C123.87 58.62 123.542 58.516 123.134 58.508H121.538V57.392H123.134C123.43 57.392 123.702 57.272 123.95 57.032C124.206 56.784 124.334 56.488 124.334 56.144C124.334 55.792 124.222 55.532 123.998 55.364C123.782 55.196 123.482 55.112 123.098 55.112C122.466 55.112 121.814 55.168 121.142 55.28L120.83 55.34L120.722 54.332ZM132.453 54.08V55.256H128.781L128.577 57.344C129.121 57.096 129.657 56.972 130.185 56.972C131.881 56.972 132.729 57.764 132.729 59.348C132.729 60.244 132.493 60.932 132.021 61.412C131.557 61.892 130.897 62.132 130.041 62.132C129.681 62.132 129.273 62.096 128.817 62.024C128.361 61.96 127.997 61.896 127.725 61.832L127.317 61.724L127.461 60.716C128.405 60.876 129.213 60.956 129.885 60.956C130.349 60.956 130.709 60.828 130.965 60.572C131.221 60.316 131.349 59.952 131.349 59.48C131.349 59.008 131.237 58.668 131.013 58.46C130.789 58.252 130.497 58.148 130.137 58.148C129.489 58.148 128.961 58.228 128.553 58.388L128.337 58.472L127.497 58.292L127.713 54.08H132.453ZM134.463 54.92C134.967 54.272 135.719 53.948 136.719 53.948C137.719 53.948 138.467 54.268 138.963 54.908C139.459 55.548 139.707 56.608 139.707 58.088C139.707 59.56 139.455 60.604 138.951 61.22C138.455 61.828 137.707 62.132 136.707 62.132C135.715 62.132 134.967 61.828 134.463 61.22C133.967 60.612 133.719 59.572 133.719 58.1C133.719 56.62 133.967 55.56 134.463 54.92ZM137.955 55.772C137.707 55.332 137.295 55.112 136.719 55.112C136.143 55.112 135.727 55.332 135.471 55.772C135.223 56.204 135.099 56.968 135.099 58.064C135.099 59.16 135.227 59.92 135.483 60.344C135.747 60.76 136.159 60.968 136.719 60.968C137.287 60.968 137.695 60.76 137.943 60.344C138.199 59.92 138.327 59.16 138.327 58.064C138.327 56.968 138.203 56.204 137.955 55.772Z" fill="white"/>
<path opacity="0.5" d="M24 54.84V57.21H17.15V54.84C17.15 53.7867 17.4167 53.0667 17.95 52.68C18.4833 52.2933 19.32 52.1 20.46 52.1C21.04 52.1 21.5333 52.14 21.94 52.22C22.34 52.2933 22.7033 52.4267 23.03 52.62C23.6767 53 24 53.74 24 54.84ZM20.46 53.25C19.6333 53.25 19.0367 53.3533 18.67 53.56C18.3033 53.7667 18.12 54.1933 18.12 54.84V56.1H23.02V54.84C23.02 54.18 22.7767 53.74 22.29 53.52C22.0433 53.4133 21.78 53.3433 21.5 53.31C21.22 53.27 20.8733 53.25 20.46 53.25ZM20.54 47.2337H22.82C22.9667 47.2271 23.0767 47.1904 23.15 47.1237C23.2167 47.0504 23.26 46.9404 23.28 46.7937L24.11 46.8237C24.11 47.3971 23.9867 47.8404 23.74 48.1537C23.9867 48.6871 24.11 49.2237 24.11 49.7637C24.11 50.7571 23.58 51.2537 22.52 51.2537C22.0133 51.2537 21.6467 51.1204 21.42 50.8537C21.1933 50.5804 21.0567 50.1637 21.01 49.6037L20.9 48.3137H20.54C20.2733 48.3137 20.0867 48.3737 19.98 48.4937C19.8733 48.6071 19.82 48.7771 19.82 49.0037C19.82 49.4304 19.8467 49.9637 19.9 50.6037L19.92 50.9237L19.15 50.9637C18.9767 50.2371 18.89 49.5704 18.89 48.9637C18.89 48.3504 19.0233 47.9104 19.29 47.6437C19.55 47.3704 19.9667 47.2337 20.54 47.2337ZM21.78 49.4737C21.82 49.9337 22.07 50.1637 22.53 50.1637C22.99 50.1637 23.22 49.9604 23.22 49.5537C23.22 49.2204 23.1667 48.8671 23.06 48.4937L23 48.3137H21.67L21.78 49.4737ZM19 46.384V45.314L23.07 44.254V43.984L19 42.924V41.844L26.15 43.744V44.814L24 44.214V45.074L19 46.384ZM21.87 36.1648V37.5648H24V38.6748H17.15V36.1648C17.15 34.6115 17.9167 33.8348 19.45 33.8348C20.2367 33.8348 20.8367 34.0315 21.25 34.4248C21.6633 34.8115 21.87 35.3915 21.87 36.1648ZM20.91 37.5648V36.1748C20.91 35.3748 20.4233 34.9748 19.45 34.9748C18.9833 34.9748 18.6433 35.0715 18.43 35.2648C18.2167 35.4582 18.11 35.7615 18.11 36.1748V37.5648H20.91ZM20.54 29.2455H22.82C22.9667 29.2388 23.0767 29.2021 23.15 29.1355C23.2167 29.0621 23.26 28.9521 23.28 28.8055L24.11 28.8355C24.11 29.4088 23.9867 29.8521 23.74 30.1655C23.9867 30.6988 24.11 31.2355 24.11 31.7755C24.11 32.7688 23.58 33.2655 22.52 33.2655C22.0133 33.2655 21.6467 33.1321 21.42 32.8655C21.1933 32.5921 21.0567 32.1755 21.01 31.6155L20.9 30.3255H20.54C20.2733 30.3255 20.0867 30.3855 19.98 30.5055C19.8733 30.6188 19.82 30.7888 19.82 31.0155C19.82 31.4421 19.8467 31.9755 19.9 32.6155L19.92 32.9355L19.15 32.9755C18.9767 32.2488 18.89 31.5821 18.89 30.9755C18.89 30.3621 19.0233 29.9221 19.29 29.6555C19.55 29.3821 19.9667 29.2455 20.54 29.2455ZM21.78 31.4855C21.82 31.9455 22.07 32.1755 22.53 32.1755C22.99 32.1755 23.22 31.9721 23.22 31.5655C23.22 31.2321 23.1667 30.8788 23.06 30.5055L23 30.3255H21.67L21.78 31.4855ZM20.03 24.4071C19.9233 25.1938 19.87 25.7638 19.87 26.1171C19.87 26.4704 19.9133 26.7171 20 26.8571C20.08 26.9904 20.21 27.0571 20.39 27.0571C20.57 27.0571 20.6967 26.9838 20.77 26.8371C20.8433 26.6838 20.93 26.3304 21.03 25.7771C21.1233 25.2171 21.2733 24.8204 21.48 24.5871C21.6867 24.3538 22.0533 24.2371 22.58 24.2371C23.1067 24.2371 23.4933 24.4071 23.74 24.7471C23.9867 25.0804 24.11 25.5704 24.11 26.2171C24.11 26.6238 24.0533 27.1371 23.94 27.7571L23.89 28.0671L22.98 28.0271C23.0867 27.2271 23.14 26.6504 23.14 26.2971C23.14 25.9438 23.0967 25.6938 23.01 25.5471C22.9233 25.3938 22.78 25.3171 22.58 25.3171C22.38 25.3171 22.2433 25.3904 22.17 25.5371C22.09 25.6771 22.0067 26.0204 21.92 26.5671C21.8267 27.1071 21.6833 27.5038 21.49 27.7571C21.2967 28.0104 20.9433 28.1371 20.43 28.1371C19.9167 28.1371 19.5333 27.9638 19.28 27.6171C19.0267 27.2638 18.9 26.8138 18.9 26.2671C18.9 25.8404 18.9533 25.3171 19.06 24.6971L19.12 24.3871L20.03 24.4071ZM20.03 19.7196C19.9233 20.5063 19.87 21.0763 19.87 21.4296C19.87 21.7829 19.9133 22.0296 20 22.1696C20.08 22.3029 20.21 22.3696 20.39 22.3696C20.57 22.3696 20.6967 22.2963 20.77 22.1496C20.8433 21.9963 20.93 21.6429 21.03 21.0896C21.1233 20.5296 21.2733 20.1329 21.48 19.8996C21.6867 19.6663 22.0533 19.5496 22.58 19.5496C23.1067 19.5496 23.4933 19.7196 23.74 20.0596C23.9867 20.3929 24.11 20.8829 24.11 21.5296C24.11 21.9363 24.0533 22.4496 23.94 23.0696L23.89 23.3796L22.98 23.3396C23.0867 22.5396 23.14 21.9629 23.14 21.6096C23.14 21.2563 23.0967 21.0063 23.01 20.8596C22.9233 20.7063 22.78 20.6296 22.58 20.6296C22.38 20.6296 22.2433 20.7029 22.17 20.8496C22.09 20.9896 22.0067 21.3329 21.92 21.8796C21.8267 22.4196 21.6833 22.8163 21.49 23.0696C21.2967 23.3229 20.9433 23.4496 20.43 23.4496C19.9167 23.4496 19.5333 23.2763 19.28 22.9296C19.0267 22.5763 18.9 22.1263 18.9 21.5796C18.9 21.1529 18.9533 20.6296 19.06 20.0096L19.12 19.6996L20.03 19.7196Z" fill="#1D6573"/>
<path d="M46.68 35V29.464H50.048V30.008H47.296V31.92H49.568V32.456H47.296V34.456H50.048V35H46.68ZM51.5979 35H50.9979V31H51.5899V31.28C52.0219 31.04 52.4352 30.92 52.8299 30.92C53.3632 30.92 53.7205 31.064 53.9019 31.352C54.0885 31.64 54.1819 32.152 54.1819 32.888V35H53.5899V32.904C53.5899 32.3493 53.5339 31.9707 53.4219 31.768C53.3152 31.56 53.0832 31.456 52.7259 31.456C52.5552 31.456 52.3739 31.4827 52.1819 31.536C51.9952 31.584 51.8512 31.632 51.7499 31.68L51.5979 31.752V35ZM57.3433 31.52H56.0713V33.432C56.0713 33.8907 56.1033 34.192 56.1673 34.336C56.2366 34.48 56.3966 34.552 56.6473 34.552L57.3593 34.504L57.3993 35C57.042 35.0587 56.77 35.088 56.5833 35.088C56.1673 35.088 55.8793 34.9867 55.7193 34.784C55.5593 34.5813 55.4793 34.1947 55.4793 33.624V31.52H54.9113V31H55.4793V29.776H56.0713V31H57.3433V31.52ZM58.076 35V31H58.668V31.544C59.132 31.224 59.62 31.0133 60.132 30.912V31.52C59.908 31.5627 59.6733 31.6293 59.428 31.72C59.188 31.8107 59.004 31.8907 58.876 31.96L58.676 32.064V35H58.076ZM60.4656 31H61.0656L62.0656 34.48H62.3296L63.3376 31H63.9376L62.2736 36.776H61.6736L62.1936 35H61.6016L60.4656 31ZM68.5386 31.52H67.2666V33.432C67.2666 33.8907 67.2986 34.192 67.3626 34.336C67.432 34.48 67.592 34.552 67.8426 34.552L68.5546 34.504L68.5946 35C68.2373 35.0587 67.9653 35.088 67.7786 35.088C67.3626 35.088 67.0746 34.9867 66.9146 34.784C66.7546 34.5813 66.6746 34.1947 66.6746 33.624V31.52H66.1066V31H66.6746V29.776H67.2666V31H68.5386V31.52ZM69.0953 32.992C69.0953 32.2613 69.226 31.7333 69.4873 31.408C69.7486 31.0827 70.1886 30.92 70.8073 30.92C71.4313 30.92 71.8713 31.0827 72.1273 31.408C72.3886 31.7333 72.5193 32.2613 72.5193 32.992C72.5193 33.7227 72.3966 34.2533 72.1513 34.584C71.906 34.9147 71.458 35.08 70.8073 35.08C70.1566 35.08 69.7086 34.9147 69.4633 34.584C69.218 34.2533 69.0953 33.7227 69.0953 32.992ZM69.7113 32.984C69.7113 33.5653 69.7806 33.9733 69.9193 34.208C70.0633 34.4427 70.3593 34.56 70.8073 34.56C71.2606 34.56 71.5566 34.4453 71.6953 34.216C71.834 33.9813 71.9033 33.5707 71.9033 32.984C71.9033 32.3973 71.826 31.9947 71.6713 31.776C71.5166 31.552 71.2286 31.44 70.8073 31.44C70.3913 31.44 70.1033 31.552 69.9433 31.776C69.7886 31.9947 69.7113 32.3973 69.7113 32.984ZM76.8877 29.92C76.0877 29.92 75.6877 30.2213 75.6877 30.824C75.6877 31.16 75.7784 31.392 75.9597 31.52C76.1464 31.6427 76.5197 31.768 77.0797 31.896C77.645 32.0187 78.045 32.1813 78.2797 32.384C78.5144 32.5813 78.6317 32.9093 78.6317 33.368C78.6317 34.504 78.0424 35.072 76.8637 35.072C76.4744 35.072 75.9864 35.0267 75.3997 34.936L75.1117 34.896L75.1757 34.384C75.901 34.48 76.453 34.528 76.8317 34.528C77.621 34.528 78.0157 34.1573 78.0157 33.416C78.0157 33.1173 77.9277 32.904 77.7517 32.776C77.581 32.6427 77.2584 32.5307 76.7837 32.44C76.1597 32.3067 75.717 32.136 75.4557 31.928C75.1944 31.7147 75.0637 31.36 75.0637 30.864C75.0637 29.872 75.6584 29.376 76.8477 29.376C77.237 29.376 77.7037 29.416 78.2477 29.496L78.5197 29.536L78.4637 30.056C77.7224 29.9653 77.197 29.92 76.8877 29.92ZM79.5916 36.776V31H80.1836V31.288C80.589 31.0427 80.989 30.92 81.3836 30.92C81.8903 30.92 82.2583 31.0827 82.4876 31.408C82.717 31.728 82.8316 32.2587 82.8316 33C82.8316 33.7413 82.6956 34.2747 82.4236 34.6C82.157 34.92 81.7116 35.08 81.0876 35.08C80.7623 35.08 80.4636 35.0507 80.1916 34.992V36.776H79.5916ZM81.2956 31.456C81.1356 31.456 80.9623 31.4827 80.7756 31.536C80.5943 31.5893 80.4503 31.6427 80.3436 31.696L80.1916 31.776V34.472C80.5703 34.5307 80.8583 34.56 81.0556 34.56C81.4876 34.56 81.789 34.4373 81.9596 34.192C82.1356 33.9467 82.2236 33.5467 82.2236 32.992C82.2236 32.4373 82.1436 32.0427 81.9836 31.808C81.829 31.5733 81.5996 31.456 81.2956 31.456ZM86.6344 32.208V34.256C86.6504 34.4533 86.805 34.5707 87.0984 34.608L87.0744 35.08C86.653 35.08 86.3357 34.9733 86.1224 34.76C85.6424 34.9733 85.1624 35.08 84.6824 35.08C84.3144 35.08 84.0344 34.976 83.8424 34.768C83.6504 34.56 83.5544 34.2613 83.5544 33.872C83.5544 33.4827 83.653 33.1973 83.8504 33.016C84.0477 32.8293 84.357 32.7147 84.7784 32.672L86.0344 32.552V32.208C86.0344 31.936 85.9757 31.7413 85.8584 31.624C85.741 31.5067 85.581 31.448 85.3784 31.448C84.9517 31.448 84.509 31.4747 84.0504 31.528L83.8024 31.552L83.7784 31.096C84.365 30.9787 84.885 30.92 85.3384 30.92C85.7917 30.92 86.1197 31.024 86.3224 31.232C86.5304 31.44 86.6344 31.7653 86.6344 32.208ZM84.1704 33.84C84.1704 34.3307 84.373 34.576 84.7784 34.576C85.141 34.576 85.4984 34.5147 85.8504 34.392L86.0344 34.328V33.008L84.8504 33.12C84.6104 33.1413 84.437 33.2107 84.3304 33.328C84.2237 33.4453 84.1704 33.616 84.1704 33.84ZM87.5142 35.984L87.8822 34.144H88.5462L88.0102 35.984H87.5142ZM91.7274 33.136H90.3194V35H89.7034V29.464H91.7274C92.3301 29.464 92.7754 29.6107 93.0634 29.904C93.3514 30.1973 93.4954 30.6453 93.4954 31.248C93.4954 32.5067 92.9061 33.136 91.7274 33.136ZM90.3194 32.592H91.7194C92.4821 32.592 92.8634 32.144 92.8634 31.248C92.8634 30.8213 92.7728 30.5093 92.5914 30.312C92.4101 30.1093 92.1194 30.008 91.7194 30.008H90.3194V32.592ZM94.1344 32.992C94.1344 32.2613 94.265 31.7333 94.5264 31.408C94.7877 31.0827 95.2277 30.92 95.8464 30.92C96.4704 30.92 96.9104 31.0827 97.1664 31.408C97.4277 31.7333 97.5584 32.2613 97.5584 32.992C97.5584 33.7227 97.4357 34.2533 97.1904 34.584C96.945 34.9147 96.497 35.08 95.8464 35.08C95.1957 35.08 94.7477 34.9147 94.5024 34.584C94.257 34.2533 94.1344 33.7227 94.1344 32.992ZM94.7504 32.984C94.7504 33.5653 94.8197 33.9733 94.9584 34.208C95.1024 34.4427 95.3984 34.56 95.8464 34.56C96.2997 34.56 96.5957 34.4453 96.7344 34.216C96.873 33.9813 96.9424 33.5707 96.9424 32.984C96.9424 32.3973 96.865 31.9947 96.7104 31.776C96.5557 31.552 96.2677 31.44 95.8464 31.44C95.4304 31.44 95.1424 31.552 94.9824 31.776C94.8277 31.9947 94.7504 32.3973 94.7504 32.984ZM98.3609 32.992C98.3609 32.2613 98.4916 31.7333 98.7529 31.408C99.0143 31.0827 99.4543 30.92 100.073 30.92C100.697 30.92 101.137 31.0827 101.393 31.408C101.654 31.7333 101.785 32.2613 101.785 32.992C101.785 33.7227 101.662 34.2533 101.417 34.584C101.172 34.9147 100.724 35.08 100.073 35.08C99.4223 35.08 98.9743 34.9147 98.7289 34.584C98.4836 34.2533 98.3609 33.7227 98.3609 32.992ZM98.9769 32.984C98.9769 33.5653 99.0463 33.9733 99.1849 34.208C99.3289 34.4427 99.6249 34.56 100.073 34.56C100.526 34.56 100.822 34.4453 100.961 34.216C101.1 33.9813 101.169 33.5707 101.169 32.984C101.169 32.3973 101.092 31.9947 100.937 31.776C100.782 31.552 100.494 31.44 100.073 31.44C99.6569 31.44 99.3689 31.552 99.2089 31.776C99.0543 31.9947 98.9769 32.3973 98.9769 32.984ZM102.812 35V29.256H103.412V35H102.812ZM106.917 30.568C106.917 30.2107 107.04 29.9253 107.285 29.712C107.53 29.4987 107.877 29.392 108.325 29.392C108.773 29.392 109.112 29.4987 109.341 29.712C109.576 29.9253 109.693 30.2213 109.693 30.6C109.693 30.9733 109.6 31.2693 109.413 31.488C109.226 31.7013 108.909 31.912 108.461 32.12L109.677 33.32C109.794 32.9787 109.869 32.5467 109.901 32.024L110.485 32.032C110.416 32.6987 110.293 33.2533 110.117 33.696L111.149 34.672L110.789 35.072L109.821 34.168C109.453 34.776 108.896 35.08 108.149 35.08C107.402 35.08 106.88 34.936 106.581 34.648C106.282 34.36 106.133 33.9627 106.133 33.456C106.133 32.944 106.229 32.5707 106.421 32.336C106.618 32.096 106.936 31.904 107.373 31.76C107.186 31.5467 107.064 31.3573 107.005 31.192C106.946 31.0267 106.917 30.8187 106.917 30.568ZM108.053 34.536C108.709 34.536 109.16 34.296 109.405 33.816L107.717 32.136C107.365 32.248 107.114 32.392 106.965 32.568C106.816 32.744 106.741 33.016 106.741 33.384C106.741 34.152 107.178 34.536 108.053 34.536ZM107.517 30.664C107.517 30.9893 107.637 31.28 107.877 31.536L108.109 31.76C108.477 31.6 108.733 31.4427 108.877 31.288C109.021 31.1333 109.093 30.92 109.093 30.648C109.093 30.1573 108.829 29.912 108.301 29.912C107.778 29.912 107.517 30.1627 107.517 30.664ZM113.743 29.464H115.751C116.3 29.464 116.711 29.5787 116.983 29.808C117.26 30.032 117.399 30.3867 117.399 30.872C117.399 31.2187 117.337 31.4907 117.215 31.688C117.097 31.88 116.921 32.032 116.687 32.144C117.273 32.3467 117.567 32.7813 117.567 33.448C117.567 34.0027 117.42 34.4 117.127 34.64C116.833 34.88 116.409 35 115.855 35H113.743V29.464ZM115.791 32.456H114.359V34.456H115.831C116.193 34.456 116.468 34.3813 116.655 34.232C116.847 34.0773 116.943 33.808 116.943 33.424C116.943 33.2213 116.903 33.0507 116.823 32.912C116.748 32.7733 116.647 32.6747 116.519 32.616C116.284 32.5093 116.041 32.456 115.791 32.456ZM115.727 30.008H114.359V31.92H115.783C116.124 31.92 116.372 31.84 116.527 31.68C116.687 31.5147 116.767 31.2693 116.767 30.944C116.767 30.6133 116.681 30.376 116.511 30.232C116.345 30.0827 116.084 30.008 115.727 30.008ZM121.064 31H121.664V35H121.064V34.72C120.664 34.96 120.27 35.08 119.88 35.08C119.336 35.08 118.974 34.9387 118.792 34.656C118.616 34.3733 118.528 33.8507 118.528 33.088V31H119.128V33.08C119.128 33.6613 119.179 34.0507 119.28 34.248C119.382 34.4453 119.611 34.544 119.968 34.544C120.144 34.544 120.323 34.52 120.504 34.472C120.686 34.4187 120.824 34.368 120.92 34.32L121.064 34.248V31ZM123.586 31.52V35H122.986V31.52H122.482V31H122.986V30.64C122.986 30.0747 123.066 29.6907 123.226 29.488C123.386 29.28 123.666 29.176 124.066 29.176L124.874 29.232L124.866 29.728C124.568 29.7173 124.32 29.712 124.122 29.712C123.93 29.712 123.792 29.776 123.706 29.904C123.626 30.032 123.586 30.28 123.586 30.648V31H124.746V31.52H123.586ZM126.235 31.52V35H125.635V31.52H125.131V31H125.635V30.64C125.635 30.0747 125.715 29.6907 125.875 29.488C126.035 29.28 126.315 29.176 126.715 29.176L127.523 29.232L127.515 29.728C127.216 29.7173 126.968 29.712 126.771 29.712C126.579 29.712 126.44 29.776 126.355 29.904C126.275 30.032 126.235 30.28 126.235 30.648V31H127.395V31.52H126.235ZM130.765 34.504L130.997 34.48L131.013 34.952C130.405 35.0373 129.885 35.08 129.453 35.08C128.877 35.08 128.469 34.9147 128.229 34.584C127.989 34.248 127.869 33.728 127.869 33.024C127.869 31.6213 128.426 30.92 129.541 30.92C130.079 30.92 130.482 31.072 130.749 31.376C131.015 31.6747 131.149 32.1467 131.149 32.792L131.117 33.248H128.477C128.477 33.6907 128.557 34.0187 128.717 34.232C128.877 34.4453 129.154 34.552 129.549 34.552C129.949 34.552 130.354 34.536 130.765 34.504ZM130.549 32.768C130.549 32.2773 130.469 31.9307 130.309 31.728C130.154 31.5253 129.898 31.424 129.541 31.424C129.189 31.424 128.922 31.5307 128.741 31.744C128.565 31.9573 128.474 32.2987 128.469 32.768H130.549ZM134.132 31.52H132.86V33.432C132.86 33.8907 132.892 34.192 132.956 34.336C133.026 34.48 133.186 34.552 133.436 34.552L134.148 34.504L134.188 35C133.831 35.0587 133.559 35.088 133.372 35.088C132.956 35.088 132.668 34.9867 132.508 34.784C132.348 34.5813 132.268 34.1947 132.268 33.624V31.52H131.7V31H132.268V29.776H132.86V31H134.132V31.52Z" fill="white"/>
<defs>
<linearGradient id="paint0_linear_991_2" x1="154.854" y1="29.4225" x2="5.14347" y2="28.1728" gradientUnits="userSpaceOnUse">
<stop stop-color="#B8E6E4"/>
<stop offset="0.296875" stop-color="#6CC8D5"/>
<stop offset="0.640625" stop-color="#64BED3"/>
<stop offset="1" stop-color="#9EDFE0"/>
</linearGradient>
<linearGradient id="paint1_linear_991_2" x1="154.655" y1="29.5775" x2="5.13674" y2="28.3374" gradientUnits="userSpaceOnUse">
<stop stop-color="#B8E6E4"/>
<stop offset="0.296875" stop-color="#6CC8D5"/>
<stop offset="0.640625" stop-color="#64BED3"/>
<stop offset="1" stop-color="#9EDFE0"/>
</linearGradient>
<linearGradient id="paint2_linear_991_2" x1="53.1511" y1="0" x2="53.1511" y2="109.005" gradientUnits="userSpaceOnUse">
<stop stop-color="#69C5D5"/>
<stop offset="0.744792" stop-color="#68C3D4"/>
<stop offset="1" stop-color="#ABE1E1"/>
</linearGradient>
<linearGradient id="paint3_linear_991_2" x1="42.0084" y1="0" x2="42.0084" y2="89.5423" gradientUnits="userSpaceOnUse">
<stop stop-color="#69C5D5"/>
<stop offset="0.744792" stop-color="#68C3D4"/>
<stop offset="1" stop-color="#ABE1E1"/>
</linearGradient>
</defs>
</svg>
