<svg width="292" height="70" viewBox="0 0 292 70" fill="none" xmlns="http://www.w3.org/2000/svg">
<g clip-path="url(#clip0_2_228)">
<path d="M181.352 58.3144C173.358 58.2111 165.383 58.7482 157.394 58.8928C150.876 59.0116 143.816 57.6946 137.432 59.2492C137.303 59.2802 137.179 59.3008 137.055 59.3215C136.75 59.4299 136.42 59.5074 136.058 59.5436C127.356 60.4835 118.643 59.8379 109.94 59.2337C100.944 58.6087 91.9209 58.6191 82.9086 58.6191C82.2888 58.6191 81.7413 58.5003 81.2714 58.2937C80.7859 58.3505 80.2952 58.4073 79.8097 58.4745C77.8368 58.7482 75.8743 58.1026 75.0789 56.2072C73.137 58.1956 70.3326 59.6417 67.3939 60.6333H182.112C181.957 59.8948 181.864 59.1149 181.848 58.2885C181.688 58.304 181.523 58.3144 181.347 58.3092L181.352 58.3144Z" fill="url(#paint0_linear_2_228)"/>
<path d="M115.487 54.4925C114.325 54.4925 113.907 54.6423 113.907 55.4221C113.907 56.202 114.325 56.3569 115.487 56.3569C116.649 56.3569 117.068 56.202 117.068 55.4221C117.068 54.6423 116.649 54.4925 115.487 54.4925Z" fill="url(#paint1_linear_2_228)"/>
<path d="M91.2857 54.4925C90.1236 54.4925 89.7053 54.6423 89.7053 55.4221C89.7053 56.202 90.1236 56.3569 91.2857 56.3569C92.4477 56.3569 92.866 56.202 92.866 55.4221C92.866 54.6423 92.4477 54.4925 91.2857 54.4925Z" fill="url(#paint2_linear_2_228)"/>
<path d="M182.897 51.466H77.4805C76.4114 55.7062 72.0782 58.4383 67.3939 60.0187H182.112C181.941 59.2027 181.843 58.335 181.843 57.4054C181.843 55.5771 182.205 53.5835 182.897 51.466ZM177.701 53.6042H178.858V54.8179L178.729 55.8921H177.825L177.701 54.8179V53.6042ZM81.0131 57.2504H77.5321L78.2758 56.3156H81.1061C81.3798 56.3156 81.5038 56.2382 81.5038 56.0471C81.5038 55.856 81.3798 55.7837 81.1061 55.7837H79.0712C78.1106 55.7837 77.6664 55.3653 77.6664 54.7352C77.6664 54.0483 78.1364 53.6042 79.2726 53.6042H82.5212L81.7775 54.5545H79.1848C78.9163 54.5545 78.7871 54.6216 78.7871 54.8024C78.7871 54.9831 78.9163 55.0606 79.1848 55.0606H81.2197C82.1287 55.0606 82.6245 55.3912 82.6245 56.0574C82.6245 56.8011 82.1597 57.2504 81.0183 57.2504H81.0131ZM86.2346 56.3208H84.2772V57.2504H83.1255V55.386H86.3482C86.7046 55.386 86.9112 55.2156 86.9112 54.9676C86.9112 54.7197 86.7046 54.5545 86.3482 54.5545H83.1255L83.8898 53.6042H86.2398C87.3967 53.6042 88.0732 54.162 88.0732 54.9728C88.0732 55.7837 87.3967 56.3208 86.2346 56.3208ZM91.2805 57.3124C89.4574 57.3124 88.5432 56.7288 88.5432 55.4273C88.5432 54.1258 89.4522 53.5474 91.2805 53.5474C93.1088 53.5474 94.0126 54.1258 94.0126 55.4273C94.0126 56.7288 93.0933 57.3124 91.2805 57.3124ZM98.3664 57.2504L97.5349 56.2846H95.7583V57.2504H94.6014V55.386H97.8551C98.2115 55.386 98.4904 55.2259 98.4904 54.978C98.4904 54.6939 98.2476 54.5545 97.8551 54.5545H94.6014L95.3554 53.6042H97.7622C98.6092 53.6042 99.6834 53.8676 99.6834 54.9057C99.6834 55.4738 99.3219 55.9386 98.7073 56.0626C98.8364 56.1555 98.9759 56.2846 99.2341 56.5429L99.921 57.2504H98.3716H98.3664ZM104.228 54.5545H102.891V57.2504H101.734V54.5545H99.9778L100.727 53.6042H104.977L104.228 54.5545ZM108.598 57.2504H105.117L105.86 56.3156H108.691C108.964 56.3156 109.088 56.2382 109.088 56.0471C109.088 55.856 108.964 55.7837 108.691 55.7837H106.656C105.695 55.7837 105.251 55.3653 105.251 54.7352C105.251 54.0483 105.721 53.6042 106.857 53.6042H110.106L109.362 54.5545H106.769C106.501 54.5545 106.372 54.6216 106.372 54.8024C106.372 54.9831 106.501 55.0606 106.769 55.0606H108.804C109.713 55.0606 110.209 55.3912 110.209 56.0574C110.209 56.8011 109.744 57.2504 108.603 57.2504H108.598ZM115.482 57.3124C113.659 57.3124 112.745 56.7288 112.745 55.4273C112.745 54.1258 113.654 53.5474 115.482 53.5474C117.31 53.5474 118.214 54.1258 118.214 55.4273C118.214 56.7288 117.295 57.3124 115.482 57.3124ZM123.234 56.6255C123.234 57.111 122.935 57.3124 122.599 57.3124C122.454 57.3124 122.315 57.2814 122.134 57.1162L119.841 55.1123V57.2556H118.788V54.2291C118.788 53.7436 119.087 53.5474 119.418 53.5474C119.557 53.5474 119.697 53.5783 119.882 53.7436L122.176 55.7475V53.6042H123.234V56.6255ZM127.521 57.2504H123.921V53.6042H128.254L127.506 54.5545H125.083V54.9883H128.048L127.382 55.8147H125.083V56.3105H128.265L127.521 57.2453V57.2504ZM132.944 56.3156H135.568L134.824 57.2504H132.944C131.648 57.2504 130.692 56.4499 130.692 55.3912C130.692 54.3324 131.648 53.6042 132.944 53.6042H135.568L134.824 54.5545H132.944C132.319 54.5545 131.849 54.9212 131.849 55.4428C131.849 55.9644 132.314 56.3156 132.944 56.3156ZM139.276 57.2504H135.97V53.6042H137.127V56.3105H140.025L139.276 57.2453V57.2504ZM141.59 57.2504H140.433V53.6042H141.59V57.2504ZM144.451 56.3156H147.074L146.331 57.2504H144.451C143.155 57.2504 142.199 56.4499 142.199 55.3912C142.199 54.3324 143.155 53.6042 144.451 53.6042H147.074L146.331 54.5545H144.451C143.826 54.5545 143.356 54.9212 143.356 55.4428C143.356 55.9644 143.821 56.3156 144.451 56.3156ZM150.447 57.2504L149.316 56.2898C148.929 55.9644 148.753 55.8043 148.624 55.6804C148.629 55.8508 148.639 56.0316 148.639 56.202V57.2504H147.477V53.6042H148.639V54.4512C148.639 54.6733 148.629 54.9005 148.619 55.0864C148.763 54.9573 148.965 54.7714 149.306 54.4925L150.385 53.6042H152.064L150.633 54.6526C150.137 55.0193 149.905 55.1794 149.667 55.324C149.879 55.4635 150.168 55.67 150.654 56.0471L152.203 57.2504H150.452H150.447ZM156.309 57.2504L157.006 56.3156H157.946C158.168 56.3156 158.432 56.3156 158.612 56.326C158.509 56.1968 158.354 55.9696 158.23 55.7992L157.559 54.8334L155.803 57.2504H154.434L156.836 53.9554C156.991 53.7436 157.223 53.5474 157.585 53.5474C157.946 53.5474 158.158 53.7281 158.323 53.9554L160.663 57.2504H156.314H156.309ZM165.512 57.3124C165.218 57.3124 165.017 57.1678 164.877 56.9251L164.278 55.8973C163.953 55.3343 163.803 55.0658 163.674 54.8024C163.555 55.0658 163.405 55.3292 163.08 55.8921L162.481 56.9302C162.346 57.1626 162.145 57.3176 161.845 57.3176C161.546 57.3176 161.298 57.1523 161.195 56.8166L160.244 53.6145H161.401L161.753 54.885C161.871 55.293 161.949 55.5926 162.006 55.887C162.13 55.6287 162.274 55.355 162.532 54.8799L163.033 53.9657C163.23 53.6042 163.421 53.5577 163.694 53.5577C163.968 53.5577 164.17 53.6093 164.366 53.9657L164.862 54.885C165.141 55.386 165.27 55.6442 165.388 55.887C165.45 55.5977 165.533 55.2879 165.647 54.885L165.998 53.6145H167.129L166.163 56.8166C166.065 57.1523 165.807 57.3176 165.512 57.3176V57.3124ZM168.523 57.2504L169.221 56.3156H170.161C170.383 56.3156 170.646 56.3156 170.827 56.326C170.729 56.1968 170.569 55.9696 170.445 55.7992L169.773 54.8334L168.017 57.2504H166.649L169.045 53.9554C169.2 53.7436 169.432 53.5474 169.794 53.5474C170.155 53.5474 170.367 53.7281 170.532 53.9554L172.872 57.2504H168.518H168.523ZM175.103 56.0471V57.2504H173.941V56.0419L171.658 53.6042H173.146L174.039 54.6165C174.158 54.7456 174.468 55.0813 174.551 55.1897C174.623 55.0864 174.752 54.9263 175.021 54.6113L175.868 53.6042H177.319L175.098 56.0471H175.103ZM178.29 57.3124C177.939 57.3124 177.66 57.1213 177.66 56.7908C177.66 56.4602 177.939 56.2588 178.29 56.2588C178.641 56.2588 178.915 56.4551 178.915 56.7908C178.915 57.1265 178.636 57.3124 178.29 57.3124Z" fill="url(#paint3_linear_2_228)"/>
<path d="M85.6975 24.4909H111.201C114.31 24.4909 116.195 25.6323 116.195 27.9099C116.195 29.9241 114.005 31.1946 111.201 31.1946H85.6975V46.1825H94.7667V38.4252H108.701L115.229 46.1825H127.366L121.974 40.4859C119.96 38.4252 118.865 37.3768 117.853 36.6279C122.671 35.6621 125.522 31.897 125.522 27.3366C125.522 18.9647 117.109 16.8627 110.447 16.8627H91.6059L85.6923 24.4857L85.6975 24.4909Z" fill="url(#paint4_linear_2_228)"/>
<path d="M129.515 47.1018H114.8L108.272 39.3445H95.6911V47.1018H84.773V30.2702H111.201C113.225 30.2702 115.27 29.4593 115.27 27.9099C115.27 26.2572 113.902 25.4154 111.201 25.4154H83.8124L91.1617 15.9434H110.457C120.476 15.9434 126.457 20.2042 126.457 27.3418C126.457 31.8919 123.901 35.5381 119.805 37.0462C120.575 37.7486 121.473 38.6421 122.646 39.8403L129.52 47.107L129.515 47.1018ZM115.658 45.2529H125.218L121.303 41.116C119.443 39.2154 118.312 38.1101 117.305 37.3664L115.627 36.1269L117.672 35.7189C121.881 34.8771 124.598 31.5872 124.598 27.3366C124.598 18.7168 114.702 17.7871 110.447 17.7871H92.0552L87.5723 23.5612H111.19C116.536 23.5612 117.109 26.5981 117.109 27.9047C117.109 30.3838 114.676 32.114 111.19 32.114H86.6116V45.2529H93.8318V37.4955H109.119L115.647 45.2529H115.658Z" fill="url(#paint5_linear_2_228)"/>
<path d="M139.813 16.6251H130.744V45.9398H139.813V16.6251Z" fill="url(#paint6_linear_2_228)"/>
<path d="M140.743 46.8643H129.824V15.7006H140.743V46.8643ZM131.673 45.0153H138.894V17.5496H131.673V45.0153Z" fill="url(#paint7_linear_2_228)"/>
<path d="M160.936 46.1774H170.052V36.4936L187.447 16.8627H176.053L169.391 24.9712C167.289 27.5122 166.282 28.7827 165.709 29.6143C165.094 28.7363 162.641 26.0661 161.722 25.0125L154.708 16.8627H143.051L160.931 36.4523V46.1825L160.936 46.1774Z" fill="url(#paint8_linear_2_228)"/>
<path d="M170.977 47.1019H160.012V36.8086L140.965 15.9382H155.142L162.429 24.4083C162.667 24.6768 163.008 25.0642 163.4 25.498C164.154 26.3399 165.032 27.3211 165.683 28.0907C166.313 27.2643 167.243 26.1178 168.684 24.3773L175.62 15.933H189.502L170.977 36.8396V47.0967V47.1019ZM161.861 45.2529H169.128V36.1424L185.396 17.7871H176.493L170.109 25.5548C168.012 28.0907 167.026 29.3302 166.478 30.1359L165.724 31.236L164.96 30.1411C164.541 29.542 163.023 27.8479 162.021 26.7324C161.623 26.2882 161.277 25.9009 161.029 25.622L154.29 17.7871H145.153L161.861 36.0908V45.2529Z" fill="url(#paint9_linear_2_228)"/>
<path d="M85.6975 23.8711H111.201C114.31 23.8711 116.195 25.0125 116.195 27.2901C116.195 29.3044 114.005 30.5749 111.201 30.5749H85.6975V45.5628H94.7667V37.8054H108.701L115.229 45.5628H127.366L121.974 39.8661C119.96 37.8054 118.865 36.757 117.853 36.0081C122.671 35.0423 125.522 31.2773 125.522 26.7169C125.522 18.3449 117.109 16.2429 110.447 16.2429H91.6059L85.6923 23.866L85.6975 23.8711Z" fill="url(#paint10_linear_2_228)"/>
<path d="M139.813 16.0053H130.744V45.32H139.813V16.0053Z" fill="url(#paint11_linear_2_228)"/>
<path d="M160.936 45.5628H170.052V35.879L187.447 16.2481H176.054L169.391 24.3566C167.289 26.8976 166.282 28.1681 165.709 28.9997C165.094 28.1217 162.641 25.4515 161.722 24.3979L154.708 16.2481H143.051L160.931 35.8377V45.5679L160.936 45.5628Z" fill="url(#paint12_linear_2_228)"/>
<path d="M208.798 54.5855H206.138C205.234 53.6507 202.977 51.0322 199.382 46.7403C199.217 46.5389 199.052 46.3581 198.881 46.1774C197.492 44.7106 195.938 43.972 194.213 43.972C194.187 43.972 194.156 43.9772 194.13 43.9772C192.921 43.9979 191.754 44.4265 190.633 45.2839C189.089 46.4614 188.32 48.109 188.32 50.2265C188.32 51.1045 188.531 51.8585 188.955 52.4938C190.256 54.5183 190.979 55.6545 191.134 55.8921C191.646 56.5894 192.162 57.2969 192.673 58.0251C193.34 59.0529 193.67 59.7915 193.67 60.2459C193.67 60.6075 193.52 60.9277 193.216 61.1962C192.307 62.0123 191.248 62.4203 190.039 62.4203C188.557 62.4203 187.276 61.847 186.187 60.6953C186.114 60.6178 186.068 60.5248 186.001 60.4474C185.014 59.2802 184.487 57.8134 184.41 56.0574C184.405 55.9076 184.379 55.7733 184.379 55.6184C184.379 54.2601 184.653 52.7933 185.195 51.2181C184.921 51.1561 184.668 51.4144 184.425 51.9876C184.24 52.437 184.095 52.8656 183.945 53.3046C183.191 55.448 182.793 57.4364 182.793 59.244C182.793 60.1891 182.902 61.0568 183.103 61.8573C183.485 63.3809 184.224 64.6462 185.334 65.6379C186.817 66.9962 188.707 67.6779 191 67.6779C193.118 67.6779 195.008 67.0891 196.666 65.9116C198.448 64.5791 199.506 62.8128 199.842 60.6075C199.904 59.5487 199.465 58.2627 198.525 56.7546C197.797 55.6649 196.258 53.7023 193.897 50.8617C193.748 50.681 193.67 50.4847 193.67 50.273C193.67 49.7307 193.99 49.4569 194.626 49.4569C194.925 49.4569 195.199 49.5912 195.442 49.8649L203.561 59.8638L204.056 60.4784L209.949 54.5855H208.798Z" fill="url(#paint13_linear_2_228)"/>
<path d="M198.143 54.6733L203.462 61.2221C203.85 61.0413 204.299 60.938 204.821 60.938C204.847 60.938 204.872 60.938 204.903 60.938L212.18 53.661H206.535C205.508 52.5506 203.344 50.0302 200.095 46.1567C199.914 45.9398 199.734 45.7384 199.553 45.5421C197.983 43.8894 196.191 43.0476 194.213 43.0476C194.166 43.0476 194.12 43.0476 194.073 43.0579C192.673 43.0889 191.331 43.595 190.07 44.5557C188.294 45.914 187.395 47.8249 187.395 50.2316C187.395 51.2904 187.664 52.2252 188.175 52.9999C189.471 55.0245 190.2 56.1555 190.349 56.3931L190.385 56.4499C190.897 57.142 191.408 57.8444 191.894 58.5364C192.735 59.8328 192.741 60.2408 192.741 60.2563C192.741 60.3079 192.741 60.3906 192.596 60.5197C191.857 61.1859 191.021 61.5061 190.039 61.5061C188.81 61.5061 187.772 61.0361 186.837 60.0445C186.796 59.9825 186.75 59.9206 186.703 59.8638C185.846 58.8515 185.396 57.5965 185.329 56.0264C185.329 55.9438 185.319 55.8611 185.309 55.7837C185.303 55.732 185.298 55.6804 185.298 55.6287C185.298 54.3789 185.557 52.9999 186.063 51.5331L186.404 50.5518L185.391 50.3298C184.957 50.2368 184.141 50.2781 183.563 51.6519C183.403 52.0444 183.269 52.4215 183.139 52.7985L183.067 53.0102C182.267 55.2827 181.864 57.3847 181.864 59.2543C181.864 60.2459 181.977 61.2014 182.199 62.0897C182.628 63.7992 183.475 65.2299 184.704 66.3248C186.357 67.8432 188.475 68.6076 190.995 68.6076C193.298 68.6076 195.385 67.9568 197.213 66.6553C199.191 65.1834 200.379 63.195 200.751 60.7469L200.761 60.6591C200.834 59.3938 200.358 57.958 199.295 56.2382C199.021 55.825 198.639 55.3033 198.148 54.6629L198.143 54.6733ZM196.123 65.1679C194.605 66.2421 192.926 66.7638 190.99 66.7638C188.914 66.7638 187.266 66.175 185.939 64.9561C184.968 64.0885 184.332 63.0039 183.986 61.6404C183.801 60.8967 183.708 60.0962 183.708 59.2543C183.708 58.8721 183.728 58.4745 183.764 58.0716C184.059 59.2078 184.575 60.215 185.319 61.0981C185.376 61.1808 185.438 61.2634 185.51 61.3409C186.775 62.6733 188.299 63.3551 190.034 63.3551C191.47 63.3551 192.751 62.8644 193.825 61.8935C194.321 61.4441 194.584 60.8812 194.584 60.2563C194.584 59.5952 194.233 58.7585 193.417 57.4983C192.906 56.7804 192.395 56.0729 191.883 55.3808C191.697 55.0864 190.974 53.9605 189.709 51.9876C189.389 51.5073 189.229 50.934 189.229 50.2316C189.229 48.4033 189.869 47.0244 191.181 46.0224C192.147 45.2839 193.112 44.9223 194.135 44.9069C194.171 44.9069 194.207 44.9069 194.243 44.8965C195.695 44.9069 196.991 45.5369 198.2 46.8126C198.355 46.9779 198.51 47.1432 198.664 47.3343C202.311 51.6829 204.532 54.2652 205.466 55.2259L205.74 55.5099H207.708L204.113 59.1046L196.118 49.2607C195.591 48.6667 195.008 48.5428 194.61 48.5428C193.469 48.5428 192.73 49.2245 192.73 50.2833C192.73 50.712 192.885 51.12 193.169 51.4608C195.493 54.2652 197.032 56.2227 197.719 57.2504C198.535 58.5674 198.933 59.6727 198.897 60.5248C198.592 62.4771 197.673 64.0007 196.108 65.1679H196.123Z" fill="url(#paint14_linear_2_228)"/>
<path d="M254.025 47.923C252.966 47.6803 252.016 47.5615 251.169 47.5615L223.46 47.6545C221.678 47.6545 220.48 47.8507 219.876 48.2432C218.967 48.9973 218.332 49.5861 217.97 50.0096L215.388 46.606L211.716 50.3711L213.373 53.0309L213.503 53.2375L214.344 54.5906H210.987L205.136 60.4835H253.291L259.184 54.5906C259.184 53.4131 258.776 52.0341 257.96 50.4641C257.325 49.2555 256.013 48.4085 254.014 47.923H254.025ZM253.844 54.5906H220.289C220.532 54.0483 220.816 53.6248 221.151 53.3201C221.544 53.1084 221.905 52.9276 222.241 52.7778H250.766C252.398 52.7778 253.426 53.3821 253.849 54.5906H253.844Z" fill="url(#paint15_linear_2_228)"/>
<path d="M258.786 50.0302C258.027 48.5789 256.498 47.5667 254.242 47.0244H254.231C253.11 46.7661 252.078 46.637 251.163 46.637L223.46 46.73C221.446 46.73 220.15 46.9624 219.375 47.4685L219.287 47.5357C218.807 47.9385 218.399 48.2897 218.063 48.6048L215.475 45.2012L210.548 50.2523L212.681 53.6713H210.605L202.92 61.4132H253.679L260.114 54.978V54.5958C260.114 53.2736 259.664 51.7397 258.781 50.0405L258.786 50.0302ZM252.914 59.559H244.269C243.969 59.6055 243.664 59.6365 243.334 59.6365C236.852 59.6468 230.386 59.8586 223.92 60.3544C222.598 60.4577 221.534 60.1375 220.728 59.5539H207.357L211.37 55.5099H216.007L212.878 50.495L215.295 48.016L217.924 51.4763L218.667 50.6087C218.993 50.2316 219.576 49.6894 220.413 48.9921C220.661 48.8527 221.405 48.5738 223.455 48.5738L251.158 48.4808C251.928 48.4808 252.821 48.5944 253.803 48.8165C255.517 49.2349 256.638 49.9269 257.139 50.8824C257.795 52.1477 258.167 53.2633 258.244 54.2136L252.909 59.5539L252.914 59.559Z" fill="url(#paint16_linear_2_228)"/>
<path d="M238.334 45.2322C238.789 44.7777 239.016 44.2354 239.016 43.6002C239.016 42.9649 238.789 42.464 238.334 42.0146C237.88 41.5601 237.353 41.3329 236.749 41.3329C236.114 41.3329 235.571 41.5601 235.117 42.0146C234.662 42.4691 234.435 42.9959 234.435 43.6002C234.435 44.2354 234.662 44.7777 235.117 45.2322C235.571 45.6867 236.114 45.914 236.749 45.914C237.384 45.914 237.88 45.6867 238.334 45.2322Z" fill="url(#paint17_linear_2_228)"/>
<path d="M236.749 46.8333C235.86 46.8333 235.091 46.5131 234.461 45.883C233.831 45.2529 233.511 44.4834 233.511 43.595C233.511 42.7067 233.831 41.9837 234.461 41.3536C235.091 40.7235 235.86 40.4033 236.749 40.4033C237.637 40.4033 238.36 40.7235 238.99 41.3536C239.61 41.9785 239.941 42.7532 239.941 43.595C239.941 44.4782 239.62 45.2477 238.99 45.883C238.36 46.5131 237.606 46.8333 236.749 46.8333ZM236.749 42.2522C236.361 42.2522 236.046 42.3813 235.773 42.6602C235.499 42.9391 235.365 43.2387 235.365 43.595C235.365 43.9824 235.494 44.2974 235.773 44.5712C236.052 44.8449 236.361 44.9792 236.754 44.9792C237.11 44.9792 237.41 44.85 237.689 44.5712C237.968 44.2923 238.097 43.9824 238.097 43.595C238.097 43.2387 237.968 42.9391 237.689 42.6602C237.41 42.3813 237.115 42.2522 236.754 42.2522H236.749Z" fill="url(#paint18_linear_2_228)"/>
<path d="M267.339 54.5855H266.632L265.165 38.3735L264.545 31.5045L260.418 35.9513L261.033 42.748L262.541 59.4196L262.639 60.4835L268.491 54.5855H267.339Z" fill="url(#paint19_linear_2_228)"/>
<path d="M262.35 60.7159C262.779 60.7159 263.156 60.8037 263.476 60.9483L270.707 53.661H267.473L265.278 29.356L259.458 35.6208L261.735 60.7779C261.927 60.7366 262.128 60.7159 262.35 60.7159ZM263.807 33.653L265.785 55.5099H266.27L263.383 58.4228L261.379 36.2767L263.812 33.653H263.807Z" fill="url(#paint20_linear_2_228)"/>
<path d="M269.896 63.1485C269.374 62.6733 268.785 62.4306 268.129 62.4306C267.401 62.4306 266.771 62.694 266.224 63.226C265.681 63.7528 265.408 64.3829 265.408 65.1059C265.408 65.829 265.671 66.49 266.203 66.9858C266.735 67.4868 267.375 67.7347 268.129 67.7347C268.801 67.7347 269.384 67.5126 269.891 67.084C269.932 67.0478 269.973 67.0272 270.009 66.9858C270.536 66.4849 270.805 65.8599 270.805 65.1059C270.805 64.3519 270.531 63.7528 269.989 63.226C269.958 63.2001 269.927 63.1795 269.896 63.1537V63.1485Z" fill="url(#paint21_linear_2_228)"/>
<path d="M268.124 68.6592C267.133 68.6592 266.27 68.3235 265.563 67.6573C264.845 66.9755 264.478 66.1182 264.478 65.1007C264.478 64.0833 264.85 63.2621 265.578 62.5546C266.296 61.8522 267.153 61.501 268.124 61.501C269.002 61.501 269.803 61.8212 270.5 62.4461C270.546 62.4823 270.588 62.5184 270.629 62.5597C271.352 63.2621 271.724 64.1195 271.724 65.1007C271.724 66.082 271.357 66.9755 270.639 67.6521C270.593 67.6986 270.536 67.7399 270.484 67.7812C269.803 68.3597 269.007 68.654 268.124 68.654V68.6592ZM268.124 63.3551C267.639 63.3551 267.236 63.5255 266.864 63.887C266.497 64.2434 266.327 64.6308 266.327 65.1059C266.327 65.6069 266.487 65.9891 266.833 66.3144C267.195 66.6501 267.603 66.8102 268.124 66.8102C268.568 66.8102 268.94 66.6708 269.286 66.3764C269.322 66.3454 269.353 66.3196 269.39 66.2989C269.715 65.9891 269.875 65.6069 269.875 65.1059C269.875 64.6049 269.705 64.2434 269.338 63.887L269.271 63.8354C268.909 63.51 268.548 63.3551 268.124 63.3551Z" fill="url(#paint22_linear_2_228)"/>
<path d="M281.32 54.6784L280.757 48.5686H275.701L276.424 54.5855H270.681H269.534L263.683 60.4835H264.834H275.381L281.32 54.6784Z" fill="url(#paint23_linear_2_228)"/>
<path d="M275.758 61.408H261.462L269.147 53.6662H275.381L274.652 47.6493H281.599L282.281 55.0348L275.758 61.408ZM265.903 59.559H275.004L280.359 54.3272L279.915 49.4983H276.739L277.467 55.5151H269.916L265.903 59.559Z" fill="url(#paint24_linear_2_228)"/>
<path d="M273.614 62.4306C272.958 62.4306 272.37 62.6733 271.848 63.1485C271.817 63.1743 271.786 63.195 271.755 63.2208C271.213 63.7476 270.939 64.3777 270.939 65.1007C270.939 65.8238 271.202 66.4849 271.734 66.9807C271.77 67.0168 271.817 67.0427 271.853 67.0736C272.359 67.5023 272.943 67.7244 273.614 67.7244C274.368 67.7244 275.019 67.4765 275.566 66.9755C276.109 66.4745 276.383 65.8496 276.383 65.0956C276.383 64.3415 276.109 63.7424 275.566 63.2156C275.024 62.6837 274.373 62.4203 273.614 62.4203V62.4306Z" fill="url(#paint25_linear_2_228)"/>
<path d="M273.614 68.6592C272.731 68.6592 271.936 68.3648 271.254 67.7864C271.197 67.7451 271.146 67.7037 271.094 67.6573C270.381 66.9807 270.014 66.1233 270.014 65.1059C270.014 64.0885 270.381 63.2673 271.109 62.5597C271.151 62.5184 271.197 62.4823 271.244 62.4461C271.925 61.8263 272.731 61.5061 273.614 61.5061C274.616 61.5061 275.489 61.8625 276.207 62.5597C276.935 63.2673 277.302 64.1195 277.302 65.1059C277.302 66.0924 276.925 66.991 276.186 67.6676C275.468 68.3287 274.601 68.6592 273.609 68.6592H273.614ZM273.614 63.3551C273.191 63.3551 272.829 63.5049 272.468 63.8354L272.364 63.918C272.034 64.2434 271.863 64.6308 271.863 65.1059C271.863 65.6069 272.024 65.9891 272.364 66.3144C272.38 66.3248 272.416 66.3506 272.447 66.3764C272.793 66.6708 273.165 66.8103 273.609 66.8103C274.136 66.8103 274.559 66.6501 274.936 66.3041C275.288 65.9839 275.453 65.6017 275.453 65.1059C275.453 64.6101 275.282 64.2434 274.916 63.887C274.544 63.5255 274.126 63.3551 273.609 63.3551H273.614Z" fill="url(#paint26_linear_2_228)"/>
<path d="M290.529 54.7249L289.532 45.6557L285.044 50.0096C285.524 54.8179 285.86 58.1697 286.04 60.0755C286.252 63.0968 284.605 65.8496 281.098 68.3287C280.948 68.4216 281.129 68.4629 281.64 68.4629C282.936 68.4629 284.315 68.0859 285.767 67.3319C287.853 66.2731 289.305 64.6566 290.121 62.4823C290.544 61.4235 290.756 59.8689 290.756 57.8134C290.756 56.8476 290.678 55.8198 290.529 54.7301V54.7249Z" fill="url(#paint27_linear_2_228)"/>
<path d="M281.64 69.3874C281.16 69.3874 280.364 69.3874 280.153 68.6334C280.065 68.3183 280.127 67.8535 280.576 67.5591C283.82 65.2608 285.302 62.8335 285.111 60.1375C284.93 58.2575 284.599 54.9005 284.114 50.0974L284.068 49.6532L290.234 43.6725L291.438 54.6061C291.592 55.732 291.67 56.8114 291.67 57.8031C291.67 59.998 291.443 61.6352 290.968 62.818C290.079 65.1885 288.463 66.991 286.175 68.1531C284.605 68.9691 283.076 69.3874 281.63 69.3874H281.64ZM286.004 50.3608C286.464 54.9315 286.779 58.1388 286.955 59.9877C287.135 62.5546 286.139 64.9355 283.995 67.0995C284.434 66.9445 284.878 66.7483 285.333 66.5107C287.233 65.5449 288.509 64.1246 289.248 62.1517C289.63 61.1859 289.826 59.7346 289.826 57.8031C289.826 56.8889 289.754 55.8973 289.609 54.8437V54.8179L288.814 47.6286L286.004 50.3556V50.3608Z" fill="url(#paint28_linear_2_228)"/>
<path d="M208.798 53.9709H206.138C205.234 53.0361 202.977 50.4176 199.382 46.1257C199.217 45.9243 199.052 45.7435 198.881 45.5628C197.492 44.096 195.938 43.3575 194.213 43.3575C194.187 43.3575 194.156 43.3626 194.13 43.3626C192.921 43.3833 191.754 43.8119 190.633 44.6693C189.089 45.8468 188.32 47.4944 188.32 49.6119C188.32 50.4899 188.531 51.2439 188.955 51.8792C190.256 53.9037 190.979 55.04 191.134 55.2775C191.646 55.9748 192.162 56.6823 192.673 57.4105C193.34 58.4383 193.67 59.1769 193.67 59.6313C193.67 59.9929 193.52 60.3131 193.216 60.5817C192.307 61.3977 191.248 61.8057 190.039 61.8057C188.557 61.8057 187.276 61.2324 186.187 60.0807C186.114 60.0032 186.068 59.9102 186.001 59.8328C185.014 58.6656 184.487 57.1988 184.41 55.4428C184.405 55.293 184.379 55.1587 184.379 55.0038C184.379 53.6455 184.653 52.1787 185.195 50.6035C184.921 50.5415 184.668 50.7998 184.425 51.373C184.24 51.8224 184.095 52.251 183.945 52.69C183.191 54.8334 182.793 56.8218 182.793 58.6294C182.793 59.5745 182.902 60.4422 183.103 61.2427C183.485 62.7663 184.224 64.0317 185.334 65.0233C186.817 66.3816 188.707 67.0633 191 67.0633C193.118 67.0633 195.008 66.4745 196.666 65.297C198.448 63.9645 199.506 62.1982 199.842 59.9929C199.904 58.9341 199.465 57.6481 198.525 56.14C197.797 55.0503 196.258 53.0877 193.897 50.2471C193.748 50.0664 193.67 49.8701 193.67 49.6584C193.67 49.1161 193.99 48.8423 194.626 48.8423C194.925 48.8423 195.199 48.9766 195.442 49.2503L203.561 59.2492L204.056 59.8638L209.949 53.9709H208.798Z" fill="url(#paint29_linear_2_228)"/>
<path d="M254.025 47.3033C252.966 47.0605 252.016 46.9417 251.169 46.9417L223.46 47.0347C221.678 47.0347 220.48 47.231 219.876 47.6235C218.967 48.3775 218.332 48.9663 217.97 49.3898L215.388 45.9863L211.716 49.7513L213.373 52.4111L213.503 52.6177L214.344 53.9709H210.987L205.136 59.8638H253.291L259.184 53.9709C259.184 52.7933 258.776 51.4144 257.96 49.8443C257.325 48.6358 256.013 47.7887 254.014 47.3033H254.025ZM253.844 53.9709H220.289C220.532 53.4286 220.816 53.0051 221.151 52.7004C221.544 52.4886 221.905 52.3078 222.241 52.1581H250.766C252.398 52.1581 253.426 52.7623 253.849 53.9709H253.844Z" fill="url(#paint30_linear_2_228)"/>
<path d="M238.334 44.6125C238.789 44.158 239.016 43.6157 239.016 42.9804C239.016 42.3452 238.789 41.8442 238.334 41.3949C237.88 40.9404 237.353 40.7131 236.749 40.7131C236.114 40.7131 235.571 40.9404 235.117 41.3949C234.662 41.8494 234.435 42.3762 234.435 42.9804C234.435 43.6157 234.662 44.158 235.117 44.6125C235.571 45.067 236.114 45.2942 236.749 45.2942C237.384 45.2942 237.88 45.067 238.334 44.6125Z" fill="url(#paint31_linear_2_228)"/>
<path d="M267.339 53.9709H266.632L265.165 37.7589L264.545 30.8899L260.418 35.3315L261.033 42.1334L262.541 58.7998L262.639 59.8638L268.491 53.9709H267.339Z" fill="url(#paint32_linear_2_228)"/>
<path d="M269.896 62.5339C269.374 62.0587 268.785 61.816 268.129 61.816C267.401 61.816 266.771 62.0794 266.224 62.6114C265.681 63.1382 265.408 63.7683 265.408 64.4913C265.408 65.2144 265.671 65.8754 266.203 66.3713C266.735 66.8722 267.375 67.1201 268.129 67.1201C268.801 67.1201 269.384 66.898 269.891 66.4694C269.932 66.4332 269.973 66.4126 270.009 66.3713C270.536 65.8703 270.805 65.2454 270.805 64.4913C270.805 63.7373 270.531 63.1382 269.989 62.6114C269.958 62.5855 269.927 62.5649 269.896 62.5391V62.5339Z" fill="url(#paint33_linear_2_228)"/>
<path d="M281.32 54.0587L280.757 47.954H275.701L276.424 53.9709H270.681H269.534L263.683 59.8638H264.834H275.381L281.32 54.0587Z" fill="url(#paint34_linear_2_228)"/>
<path d="M273.614 61.8108C272.958 61.8108 272.37 62.0536 271.848 62.5287C271.817 62.5546 271.786 62.5752 271.755 62.601C271.213 63.1278 270.939 63.7579 270.939 64.481C270.939 65.204 271.202 65.8651 271.734 66.3609C271.77 66.3971 271.817 66.4229 271.853 66.4539C272.359 66.8826 272.943 67.1046 273.614 67.1046C274.368 67.1046 275.019 66.8567 275.566 66.3558C276.109 65.8548 276.383 65.2299 276.383 64.4758C276.383 63.7218 276.109 63.1227 275.566 62.5959C275.024 62.0639 274.373 61.8005 273.614 61.8005V61.8108Z" fill="url(#paint35_linear_2_228)"/>
<path d="M290.529 54.1051L289.532 45.036L285.044 49.3898C285.524 54.1981 285.86 57.55 286.04 59.4558C286.252 62.4771 284.605 65.2299 281.098 67.7089C280.948 67.8019 281.129 67.8432 281.64 67.8432C282.936 67.8432 284.315 67.4662 285.767 66.7121C287.853 65.6534 289.305 64.0368 290.121 61.8625C290.544 60.8037 290.756 59.2492 290.756 57.1936C290.756 56.2278 290.678 55.2001 290.529 54.1103V54.1051Z" fill="url(#paint36_linear_2_228)"/>
<path d="M74.6657 50.0509C74.2371 47.2361 72.9407 44.7777 71.443 42.4175C70.2758 40.5789 69.0052 38.8229 67.6728 37.1185C65.421 38.7712 63.1382 40.4084 60.8192 42.0095C61.9245 43.342 62.8489 44.8191 63.5359 46.4821C64.9097 49.7978 63.8199 52.4266 60.4629 53.7075C58.7172 54.3737 56.8424 54.7921 54.9883 55.04C50.0664 55.701 45.1238 55.5099 40.1812 55.3395C39.0398 55.6546 37.9036 55.9851 36.7673 56.3311C40.1037 56.8837 43.4401 57.4312 46.7868 57.896C52.2252 58.6501 57.6998 59.1252 63.2053 58.743C65.9426 58.5519 68.6489 58.1904 71.1331 56.9251C73.9582 55.4893 75.1357 53.1755 74.6606 50.0509H74.6657Z" fill="url(#paint37_linear_2_228)"/>
<path d="M61.5216 29.888C60.9432 29.2476 60.2718 28.6794 59.6055 28.132C56.0264 25.1881 52.1271 24.7078 47.9643 26.7272C46.7971 27.2901 45.6764 27.9719 44.6125 28.7156C33.1572 36.6847 21.7071 44.6641 10.2622 52.6435C13.8672 52.4163 17.3378 51.812 20.9118 51.1768C21.9292 50.996 23.1377 50.1232 24.0777 49.679C25.1985 49.1471 26.3192 48.6151 27.4399 48.0883C29.7485 46.9934 32.052 45.9036 34.3606 44.8087C38.8384 42.6912 43.3265 40.5995 47.8249 38.5233C48.8785 38.0378 49.9321 37.5524 50.9599 37.0204C51.936 36.5194 61.723 30.1152 61.7075 30.0997C61.6456 30.0326 61.5836 29.9603 61.5216 29.8931V29.888Z" fill="url(#paint38_linear_2_228)"/>
<path d="M63.9542 12.2403C67.5953 13.6709 71.6754 11.8839 72.7755 8.38227C73.9633 4.5914 71.1228 0.500975 66.9859 0.0516482C62.9316 -0.387349 59.5849 2.37059 59.5952 6.15113C59.6004 8.80577 61.3202 11.2125 63.949 12.2454L63.9542 12.2403Z" fill="url(#paint39_linear_2_228)"/>
<path d="M92.081 7.14791C91.9674 6.18212 91.6524 5.22149 91.0481 4.46228C90.6401 3.95098 90.1391 3.56879 89.5813 3.28474C88.786 2.87673 87.8821 2.65464 86.999 2.53586C86.1778 2.4274 85.3463 2.40158 84.5148 2.4274C84.2565 2.43773 83.4767 2.5875 82.7898 2.68047C84.4735 3.89417 86.028 5.17501 85.7801 7.5146C85.744 7.82965 85.6768 8.1292 85.5994 8.42359C85.2378 10.5928 83.8124 12.6431 82.4954 14.301C80.2074 17.1777 77.6509 19.8169 74.9291 22.2907C72.3003 24.6768 69.5114 26.9028 66.6398 29.0255C65.4571 29.8983 64.2692 30.7556 63.0659 31.5975C62.6527 31.8867 62.2344 32.1811 61.816 32.4703C59.4764 34.092 57.1007 35.6621 54.6939 37.1908C49.0593 40.7751 43.2438 44.0857 37.2012 46.9624C28.5142 51.089 19.538 54.9728 9.83355 55.7475C7.9691 55.8973 6.04784 55.8301 4.70503 54.353C3.55847 53.0929 3.042 51.2852 3.01101 49.6119C1.82314 51.2956 0.671414 53.0774 0.242745 55.0916C-0.185923 57.111 0.25824 59.4299 1.83863 60.7572C3.4655 62.1207 5.8051 62.1207 7.91746 61.9451C16.8007 61.2014 25.5187 58.6087 33.684 55.1123C42.748 51.2336 51.3007 46.1051 59.4506 40.4962C61.8057 38.8745 64.1298 37.2167 66.4229 35.533C67.5333 34.717 68.6334 33.9009 69.7283 33.0798C70.1621 32.7544 70.5908 32.4238 71.0246 32.0933C74.9188 29.1339 78.7458 26.0506 82.294 22.6833C84.9383 20.1681 87.6911 17.4359 89.8034 14.4508C91.3115 12.3178 92.3857 9.73541 92.081 7.14275V7.14791Z" fill="#808285"/>
<path d="M91.9932 7.23055C91.8796 6.26475 91.5646 5.30412 90.9603 4.54492C90.5523 4.03361 90.0513 3.65143 89.4935 3.36737C88.6982 2.95936 87.7943 2.73728 86.9112 2.61849C86.09 2.51003 85.2585 2.48421 84.427 2.51003C84.1687 2.52036 83.3889 2.67014 82.702 2.7631C84.3857 3.9768 85.9402 5.25764 85.6923 7.59724C85.6562 7.91228 85.589 8.21184 85.5116 8.50622C85.15 10.6754 83.7246 12.7258 82.4076 14.3836C80.1196 17.2603 77.5631 19.8995 74.8413 22.3734C72.2125 24.7595 69.4236 26.9854 66.552 29.1081C65.3693 29.9809 64.1814 30.8383 62.9781 31.6801C62.5649 31.9693 62.1466 32.2637 61.7282 32.553C59.3886 34.1747 57.0129 35.7447 54.6061 37.2735C48.9715 40.8578 43.156 44.1683 37.1134 47.045C28.4264 51.1716 19.4502 55.0555 9.74575 55.8302C7.8813 55.9799 5.96004 55.9128 4.61723 54.4357C3.47067 53.1755 2.9542 51.3679 2.92321 49.6945C1.73534 51.3782 0.583615 53.16 0.154946 55.1742C-0.273722 57.1885 0.17044 59.5126 1.75083 60.8399C3.3777 62.2034 5.7173 62.2034 7.82966 62.0278C16.7129 61.284 25.4309 58.6914 33.5962 55.1949C42.6602 51.3162 51.2129 46.1877 59.3628 40.5789C61.7179 38.9572 64.042 37.2993 66.3351 35.6156C67.4455 34.7996 68.5456 33.9836 69.6405 33.1624C70.0743 32.837 70.503 32.5065 70.9368 32.1759C74.831 29.2166 78.658 26.1333 82.2062 22.7659C84.8505 20.2507 87.6033 17.5186 89.7156 14.5334C91.2237 12.4004 92.2979 9.81805 91.9932 7.22538V7.23055Z" fill="#808285"/>
<path d="M91.9932 7.23055C91.8796 6.26475 91.5646 5.30412 90.9603 4.54492C90.5523 4.03361 90.0513 3.65143 89.4935 3.36737C88.6982 2.95936 87.7943 2.73728 86.9112 2.61849C86.09 2.51003 85.2585 2.48421 84.427 2.51003C84.1687 2.52036 83.3889 2.67014 82.702 2.7631C84.3857 3.9768 85.9402 5.25764 85.6923 7.59724C85.6562 7.91228 85.589 8.21184 85.5116 8.50622C85.15 10.6754 83.7246 12.7258 82.4076 14.3836C80.1196 17.2603 77.5631 19.8995 74.8413 22.3734C72.2125 24.7595 69.4236 26.9854 66.552 29.1081C65.3693 29.9809 64.1814 30.8383 62.9781 31.6801C62.5649 31.9693 62.1466 32.2637 61.7282 32.553C59.3886 34.1747 57.0129 35.7447 54.6061 37.2735C48.9715 40.8578 43.156 44.1683 37.1134 47.045C28.4264 51.1716 19.4502 55.0555 9.74575 55.8302C7.8813 55.9799 5.96004 55.9128 4.61723 54.4357C3.47067 53.1755 2.9542 51.3679 2.92321 49.6945C1.73534 51.3782 0.583615 53.16 0.154946 55.1742C-0.273722 57.1885 0.17044 59.5126 1.75083 60.8399C3.3777 62.2034 5.7173 62.2034 7.82966 62.0278C16.7129 61.284 25.4309 58.6914 33.5962 55.1949C42.6602 51.3162 51.2129 46.1877 59.3628 40.5789C61.7179 38.9572 64.042 37.2993 66.3351 35.6156C67.4455 34.7996 68.5456 33.9836 69.6405 33.1624C70.0743 32.837 70.503 32.5065 70.9368 32.1759C74.831 29.2166 78.658 26.1333 82.2062 22.7659C84.8505 20.2507 87.6033 17.5186 89.7156 14.5334C91.2237 12.4004 92.2979 9.81805 91.9932 7.22538V7.23055Z" fill="#808285"/>
<path d="M91.9932 7.23055C91.8796 6.26475 91.5646 5.30412 90.9603 4.54492C90.5523 4.03361 90.0513 3.65143 89.4935 3.36737C88.6982 2.95936 87.7943 2.73728 86.9112 2.61849C86.09 2.51003 85.2585 2.48421 84.427 2.51003C84.1687 2.52036 83.3889 2.67014 82.702 2.7631C84.3857 3.9768 85.9402 5.25764 85.6923 7.59724C85.6562 7.91228 85.589 8.21184 85.5116 8.50622C85.15 10.6754 83.7246 12.7258 82.4076 14.3836C80.1196 17.2603 77.5631 19.8995 74.8413 22.3734C72.2125 24.7595 69.4236 26.9854 66.552 29.1081C65.3693 29.9809 64.1814 30.8383 62.9781 31.6801C62.5649 31.9693 62.1466 32.2637 61.7282 32.553C59.3886 34.1747 57.0129 35.7447 54.6061 37.2735C48.9715 40.8578 43.156 44.1683 37.1134 47.045C28.4264 51.1716 19.4502 55.0555 9.74575 55.8302C7.8813 55.9799 5.96004 55.9128 4.61723 54.4357C3.47067 53.1755 2.9542 51.3679 2.92321 49.6945C1.73534 51.3782 0.583615 53.16 0.154946 55.1742C-0.273722 57.1885 0.17044 59.5126 1.75083 60.8399C3.3777 62.2034 5.7173 62.2034 7.82966 62.0278C16.7129 61.284 25.4309 58.6914 33.5962 55.1949C42.6602 51.3162 51.2129 46.1877 59.3628 40.5789C61.7179 38.9572 64.042 37.2993 66.3351 35.6156C67.4455 34.7996 68.5456 33.9836 69.6405 33.1624C70.0743 32.837 70.503 32.5065 70.9368 32.1759C74.831 29.2166 78.658 26.1333 82.2062 22.7659C84.8505 20.2507 87.6033 17.5186 89.7156 14.5334C91.2237 12.4004 92.2979 9.81805 91.9932 7.22538V7.23055Z" fill="url(#paint40_linear_2_228)"/>
<path d="M34.4071 10.1641C42.8255 11.2745 50.2885 14.6212 56.7701 20.0648C59.5384 22.3889 62.0794 24.9867 64.765 27.4141L72.7445 21.4179C70.6528 20.4676 68.685 19.2849 66.6966 18.1332C61.3718 15.0499 56.0316 12.0027 50.2575 9.81289C44.2355 7.52494 38.0688 6.25959 31.5975 7.30286C28.7672 7.76251 26.0816 8.68182 23.4373 10.0918C27.1817 9.68377 30.797 9.68377 34.4019 10.1641H34.4071Z" fill="url(#paint41_linear_2_228)"/>
<path d="M56.7701 20.0648C50.2885 14.6212 42.8255 11.2745 34.4071 10.1641C30.8021 9.68894 27.1869 9.68894 23.4425 10.0918C23.7575 9.92651 24.0726 9.76641 24.3876 9.61147C23.3857 9.99365 22.3992 10.4326 21.4128 10.944C25.2914 10.5359 29.0358 10.5359 32.7699 11.0163C41.4879 12.1267 49.2142 15.4734 55.9283 20.9169C58.7069 23.1687 61.2634 25.6736 63.949 28.039L64.7754 27.4193C62.0897 24.9919 59.5487 22.394 56.7805 20.0699L56.7701 20.0648Z" fill="url(#paint42_linear_2_228)"/>
<path d="M48.0315 28.4522C51.9463 26.5516 55.6081 27.0113 58.9703 29.7744C59.4454 30.1669 59.9206 30.5646 60.3596 30.9932C61.1859 30.4509 61.7179 30.0997 61.7127 30.0946C61.6507 30.0274 61.5888 29.9551 61.5268 29.888C60.9484 29.2476 60.2769 28.6794 59.6107 28.132C56.0316 25.1881 52.1323 24.7078 47.9695 26.7272C46.8023 27.2901 45.6816 27.9719 44.6176 28.7156C33.1624 36.6847 21.7123 44.6641 10.2674 52.6435C11.2642 52.5816 12.2506 52.4886 13.2267 52.375C23.7782 45.0205 34.3296 37.666 44.8862 30.3218C45.8882 29.6246 46.9418 28.9842 48.0367 28.4522H48.0315Z" fill="url(#paint43_linear_2_228)"/>
<path d="M74.6657 50.0509C74.2371 47.2361 72.9407 44.7777 71.443 42.4175C70.2757 40.5789 69.0052 38.8229 67.6728 37.1185C65.421 38.7712 63.1382 40.4084 60.8192 42.0095C60.8502 42.0456 60.8709 42.0818 60.9019 42.1179C62.9161 40.7183 64.9096 39.2929 66.8722 37.8519C68.1169 39.4426 69.2996 41.0798 70.3894 42.7945C71.7838 44.9947 72.9975 47.2878 73.3952 49.9114C73.8342 52.8243 72.7393 54.9831 70.1053 56.3208C67.7864 57.5035 65.2608 57.8392 62.7095 58.02C57.5758 58.3763 52.4679 57.9373 47.3962 57.2298C44.411 56.8166 41.4362 56.3311 38.4613 55.8353C37.8984 56.0006 37.3354 56.1555 36.7725 56.326C40.1089 56.8786 43.4453 57.426 46.792 57.8909C52.2304 58.6449 57.7049 59.1201 63.2105 58.7379C65.9478 58.5468 68.654 58.1852 71.1383 56.9199C73.9633 55.4841 75.1409 53.1703 74.6657 50.0457V50.0509Z" fill="url(#paint44_linear_2_228)"/>
<path d="M66.9859 1.25502C65.0181 1.04327 63.2725 1.78698 62.2189 3.08848C63.2673 2.24147 64.6979 1.79731 66.268 1.96774C69.5062 2.31894 71.7374 5.52621 70.8025 8.4959C70.6218 9.07434 70.3326 9.58564 69.971 10.0298C70.6786 9.45652 71.2261 8.69732 71.5153 7.78317C72.4449 4.81348 70.2189 1.60622 66.9807 1.25502H66.9859Z" fill="white"/>
<path d="M91.9932 7.23055C91.8796 6.26475 91.5646 5.30412 90.9603 4.54491C90.5523 4.03361 90.0513 3.65143 89.4935 3.36737C88.6982 2.95936 87.7943 2.73728 86.9112 2.61849C86.3689 2.54619 85.8266 2.5152 85.2792 2.50487C85.3515 2.5152 85.4238 2.52036 85.4961 2.53069C86.3431 2.64431 87.2107 2.85607 87.9751 3.24858C88.5122 3.52747 88.9926 3.89417 89.3851 4.37964C89.9635 5.10786 90.2682 6.02718 90.3767 6.95165C90.6711 9.43586 89.6381 11.9149 88.192 13.9601C86.1675 16.8214 83.5283 19.445 80.9925 21.8569C77.5941 25.0848 73.922 28.0442 70.188 30.8848C69.7748 31.1998 69.3616 31.52 68.9433 31.8299C67.8949 32.6201 66.8361 33.4051 65.7722 34.185C63.572 35.7964 61.346 37.3923 59.0839 38.9468C51.2698 44.3233 43.0631 49.24 34.3761 52.9638C26.5413 56.3156 18.1797 58.7998 9.66312 59.5126C7.63856 59.683 5.39193 59.683 3.8322 58.3763C2.31895 57.1058 1.89028 54.8799 2.29829 52.9431C2.45323 52.2149 2.7063 51.5176 3.02134 50.8462C2.96453 50.4641 2.92838 50.0819 2.92321 49.7048C1.73534 51.3885 0.583615 53.1703 0.154946 55.1846C-0.273722 57.204 0.17044 59.5229 1.75083 60.8502C3.3777 62.2137 5.7173 62.2137 7.82966 62.0381C16.7129 61.2944 25.4309 58.7017 33.5962 55.2052C42.6602 51.3266 51.2129 46.198 59.3628 40.5892C61.7179 38.9675 64.042 37.3096 66.3351 35.6259C67.4455 34.8099 68.5456 33.9939 69.6405 33.1727C70.0743 32.8473 70.503 32.5168 70.9368 32.1863C74.831 29.2269 78.658 26.1436 82.2062 22.7762C84.8505 20.261 87.6033 17.5289 89.7156 14.5437C91.2237 12.4107 92.2979 9.82838 91.9932 7.23571V7.23055Z" fill="url(#paint45_linear_2_228)"/>
<path d="M217.903 47.1018H218.59C218.657 47.045 218.719 46.9934 218.791 46.9314L218.915 46.8384C219.375 46.5389 219.938 46.322 220.645 46.1774H217.206L217.908 47.1018H217.903Z" fill="url(#paint46_linear_2_228)"/>
<path d="M185.438 46.1774H177.851L178.29 45.5628H177.851L196.65 19.0525C197.879 17.343 199.672 15.7678 202.522 15.7678C205.373 15.7678 207.036 17.2139 208.307 19.0525L226.554 45.4646H226.13L226.456 45.9398H227.576L209.066 19.1403C207.377 16.6922 205.177 15.4527 202.522 15.4527C199.868 15.4527 197.673 16.6561 195.896 19.13L176.064 47.1018H187.178C187.302 46.7816 187.457 46.4718 187.628 46.1774H185.438Z" fill="url(#paint47_linear_2_228)"/>
<path d="M195.214 41.8752L198.009 38.0275H205.368C206.938 38.0275 208.746 38.0275 210.115 38.0895C209.355 37.0359 208.395 35.6311 207.605 34.4794L202.347 26.722L191.63 41.87L190.67 43.2283C191.196 42.934 191.733 42.7119 192.281 42.5518L202.331 28.3386L206.845 34.9958L207.109 35.378C207.641 36.1527 208.209 36.9791 208.736 37.7331C207.651 37.7125 206.468 37.7125 205.373 37.7125H197.539L194.228 42.2729C194.595 42.2729 194.951 42.309 195.307 42.3607L195.612 41.9423C195.483 41.9165 195.349 41.8855 195.22 41.87L195.214 41.8752Z" fill="url(#paint48_linear_2_228)"/>
<path d="M201.903 47.1018H212.526L213.43 46.1774H201.128C201.391 46.4924 201.655 46.8075 201.903 47.1018Z" fill="url(#paint49_linear_2_228)"/>
<path d="M223.46 45.475C222.768 45.475 222.164 45.506 221.616 45.5628H217.02L215.532 43.6105L213.627 45.5628H200.942C200.823 45.4182 200.71 45.2839 200.586 45.1393C199.129 43.3626 197.456 42.3039 195.607 41.9527L195.302 42.371C197.069 42.6292 198.685 43.5072 200.111 45.0153C200.307 45.2219 200.498 45.4388 200.689 45.6712C200.839 45.852 200.978 46.0121 201.123 46.1877H213.425L215.543 44.0185L217.19 46.1877H220.63C221.389 46.0328 222.308 45.9605 223.45 45.9605L226.45 45.9501L226.125 45.475L223.455 45.4853L223.46 45.475Z" fill="url(#paint50_linear_2_228)"/>
<path d="M223.46 45.475C222.768 45.475 222.164 45.506 221.616 45.5628H217.02L215.532 43.6105L213.627 45.5628H200.942C200.823 45.4182 200.71 45.2839 200.586 45.1393C199.129 43.3626 197.456 42.3039 195.607 41.9527L195.302 42.371C197.069 42.6292 198.685 43.5072 200.111 45.0153C200.307 45.2219 200.498 45.4388 200.689 45.6712C200.839 45.852 200.978 46.0121 201.123 46.1877H213.425L215.543 44.0185L217.19 46.1877H220.63C221.389 46.0328 222.308 45.9605 223.45 45.9605L226.45 45.9501L226.125 45.475L223.455 45.4853L223.46 45.475Z" fill="url(#paint51_linear_2_228)"/>
<path d="M185.438 45.5628H178.29L177.851 46.1774H187.628C187.746 45.9656 187.881 45.759 188.02 45.5628H185.438Z" fill="url(#paint52_linear_2_228)"/>
<path d="M185.438 45.5628H178.29L177.851 46.1774H187.628C187.746 45.9656 187.881 45.759 188.02 45.5628H185.438Z" fill="url(#paint53_linear_2_228)"/>
<path d="M191.635 41.8752L202.352 26.7272L207.61 34.4845C208.4 35.6363 209.366 37.0411 210.12 38.0947C210.28 38.0998 210.44 38.1101 210.59 38.1205C209.799 37.0669 208.575 35.2696 207.61 33.8699L202.352 26.1126L191.635 41.2606L190.447 42.9391L189.874 43.7448C190.138 43.5589 190.401 43.3884 190.67 43.2335L191.63 41.8752H191.635Z" fill="url(#paint54_linear_2_228)"/>
<path d="M191.635 41.8752L202.352 26.7272L207.61 34.4845C208.4 35.6363 209.366 37.0411 210.12 38.0947C210.28 38.0998 210.44 38.1101 210.59 38.1205C209.799 37.0669 208.575 35.2696 207.61 33.8699L202.352 26.1126L191.635 41.2606L190.447 42.9391L189.874 43.7448C190.138 43.5589 190.401 43.3884 190.67 43.2335L191.63 41.8752H191.635Z" fill="url(#paint55_linear_2_228)"/>
<path d="M254.402 46.2652C254.619 46.3168 254.82 46.3788 255.021 46.4408C256.622 46.0534 258.12 45.4905 259.504 44.7622L259.417 43.7655C257.428 44.8604 255.125 45.6093 252.604 45.9501C253.178 46.0173 253.772 46.1206 254.396 46.2652H254.402Z" fill="url(#paint56_linear_2_228)"/>
<path d="M229.869 45.4543V27.2901H238.985V38.0275H249.5C254.412 38.0275 257.981 35.3625 258.162 31.3341C257.981 27.3728 254.288 24.4909 249.5 24.4909H229.869L230.339 23.8763H229.869L235.654 16.2532H249.5C259.752 16.2532 267.158 22.1668 267.158 30.6265C267.158 30.7092 267.148 30.7918 267.148 30.8744C267.148 30.9984 267.158 31.1172 267.158 31.2411C267.158 32.6098 266.947 33.9113 266.58 35.1559L266.792 37.5162L267.349 35.8222C267.835 34.3348 268.083 32.7957 268.083 31.2411C268.083 22.3785 260.269 15.9434 249.5 15.9434H235.194L228.01 25.4154H249.506C253.926 25.4154 257.258 28.0907 257.258 31.6336C257.258 35.1766 254.143 37.7176 249.506 37.7176H239.915V26.9803H228.95V45.9295H229.875V45.4543H229.869Z" fill="url(#paint57_linear_2_228)"/>
<path d="M251.163 45.382L240.281 45.4182C240.199 45.5834 240.101 45.7384 239.987 45.8933L251.158 45.8572C251.613 45.8572 252.098 45.8882 252.604 45.9501C255.125 45.6093 257.428 44.8604 259.417 43.7655L259.365 43.1767C257.191 44.3646 254.65 45.1444 251.855 45.4285C251.623 45.413 251.38 45.382 251.163 45.382Z" fill="url(#paint58_linear_2_228)"/>
<path d="M251.163 45.382L240.281 45.4182C240.199 45.5834 240.101 45.7384 239.987 45.8933L251.158 45.8572C251.613 45.8572 252.098 45.8882 252.604 45.9501C255.125 45.6093 257.428 44.8604 259.417 43.7655L259.365 43.1767C257.191 44.3646 254.65 45.1444 251.855 45.4285C251.623 45.413 251.38 45.382 251.163 45.382Z" fill="url(#paint59_linear_2_228)"/>
<path d="M258.802 34.7841L258.838 35.156L265.81 27.6414L265.779 27.2695L258.802 34.7841Z" fill="url(#paint60_linear_2_228)"/>
<path d="M258.802 34.7841L258.838 35.156L265.81 27.6414L265.779 27.2695L258.802 34.7841Z" fill="url(#paint61_linear_2_228)"/>
<path d="M229.869 45.9295L233.48 45.9191C233.366 45.7642 233.268 45.6093 233.18 45.444L229.869 45.4543V45.9295Z" fill="url(#paint62_linear_2_228)"/>
<path d="M229.869 45.9295L233.48 45.9191C233.366 45.7642 233.268 45.6093 233.18 45.444L229.869 45.4543V45.9295Z" fill="url(#paint63_linear_2_228)"/>
<path d="M236.744 39.1586C235.7 39.1586 234.75 39.5511 234.012 40.2948C233.418 40.8887 233.051 41.6015 232.927 42.3762C233.118 41.8029 233.443 41.2761 233.913 40.8061C234.693 40.0262 235.649 39.6286 236.749 39.6286C237.849 39.6286 238.753 40.0262 239.538 40.8061C240.003 41.2709 240.333 41.8081 240.524 42.3917C240.4 41.6066 240.034 40.8887 239.44 40.2896C238.696 39.5459 237.766 39.1534 236.749 39.1534L236.744 39.1586Z" fill="url(#paint64_linear_2_228)"/>
<path d="M236.744 39.1586C235.7 39.1586 234.75 39.5511 234.012 40.2948C233.418 40.8887 233.051 41.6015 232.927 42.3762C233.118 41.8029 233.443 41.2761 233.913 40.8061C234.693 40.0262 235.649 39.6286 236.749 39.6286C237.849 39.6286 238.753 40.0262 239.538 40.8061C240.003 41.2709 240.333 41.8081 240.524 42.3917C240.4 41.6066 240.034 40.8887 239.44 40.2896C238.696 39.5459 237.766 39.1534 236.749 39.1534L236.744 39.1586Z" fill="url(#paint65_linear_2_228)"/>
<path d="M249.5 23.8711H230.334L229.864 24.4857H249.495C254.283 24.4857 257.976 27.3625 258.156 31.3289C258.156 31.2256 258.172 31.1223 258.172 31.0139C258.172 26.8925 254.402 23.8711 249.495 23.8711H249.5Z" fill="url(#paint66_linear_2_228)"/>
<path d="M249.5 23.8711H230.334L229.864 24.4857H249.495C254.283 24.4857 257.976 27.3625 258.156 31.3289C258.156 31.2256 258.172 31.1223 258.172 31.0139C258.172 26.8925 254.402 23.8711 249.495 23.8711H249.5Z" fill="url(#paint67_linear_2_228)"/>
<path d="M267.148 30.8693C267.122 32.1966 266.91 33.4723 266.533 34.6808L266.575 35.1508C266.941 33.9113 267.153 32.6046 267.153 31.236C267.153 31.112 267.148 30.9932 267.143 30.8693H267.148Z" fill="url(#paint68_linear_2_228)"/>
<path d="M267.148 30.8693C267.122 32.1966 266.91 33.4723 266.533 34.6808L266.575 35.1508C266.941 33.9113 267.153 32.6046 267.153 31.236C267.153 31.112 267.148 30.9932 267.143 30.8693H267.148Z" fill="url(#paint69_linear_2_228)"/>
<path d="M281.888 46.8694V15.9382H270.97V47.1018H273.81L273.785 46.8694H281.893H281.888ZM271.894 45.5628V16.2481H280.964V46.1825H271.894V45.5679V45.5628Z" fill="url(#paint70_linear_2_228)"/>
<path d="M280.964 45.5628H271.894V46.1774H280.964V45.5628Z" fill="url(#paint71_linear_2_228)"/>
<path d="M280.964 45.5628H271.894V46.1774H280.964V45.5628Z" fill="url(#paint72_linear_2_228)"/>
<path d="M208.627 34.3348C209.515 35.6259 210.616 37.2321 211.323 38.1721L212.526 39.7732L210.528 39.6492C209.154 39.5614 207.145 39.5614 205.373 39.5614H198.484L196.785 41.901C198.458 42.4485 199.971 43.5382 201.304 45.1651L201.376 45.2529H213.239L215.625 42.81L217.479 45.2529H221.57C222.159 45.1961 222.778 45.1651 223.46 45.1651H224.798L207.548 20.1939C206.205 18.252 204.563 17.3068 202.522 17.3068C200.482 17.3068 198.825 18.2313 197.404 20.2094L179.643 45.2581H188.113L202.368 25.1003L208.632 34.3348H208.627Z" fill="url(#paint73_linear_2_228)"/>
<path d="M208.627 34.3348C209.515 35.6259 210.616 37.2321 211.323 38.1721L212.526 39.7732L210.528 39.6492C209.154 39.5614 207.145 39.5614 205.373 39.5614H198.484L196.785 41.901C198.458 42.4485 199.971 43.5382 201.304 45.1651L201.376 45.2529H213.239L215.625 42.81L217.479 45.2529H221.57C222.159 45.1961 222.778 45.1651 223.46 45.1651H224.798L207.548 20.1939C206.205 18.252 204.563 17.3068 202.522 17.3068C200.482 17.3068 198.825 18.2313 197.404 20.2094L179.643 45.2581H188.113L202.368 25.1003L208.632 34.3348H208.627Z" fill="url(#paint74_linear_2_228)"/>
<path d="M205.373 38.6421C207.124 38.6421 209.185 38.6421 210.59 38.7299C210.445 38.5388 210.29 38.3219 210.12 38.0895C208.751 38.0275 206.943 38.0275 205.373 38.0275H198.014L195.22 41.8752C195.354 41.8907 195.483 41.9217 195.612 41.9475L198.014 38.6421H205.373Z" fill="url(#paint75_linear_2_228)"/>
<path d="M205.373 38.6421C207.124 38.6421 209.185 38.6421 210.59 38.7299C210.445 38.5388 210.29 38.3219 210.12 38.0895C208.751 38.0275 206.943 38.0275 205.373 38.0275H198.014L195.22 41.8752C195.354 41.8907 195.483 41.9217 195.612 41.9475L198.014 38.6421H205.373Z" fill="url(#paint76_linear_2_228)"/>
<path d="M202.522 16.3823C205.239 16.3823 207.036 17.8285 208.307 19.6671L226.13 45.4646H226.554L208.307 19.0525C207.036 17.2139 205.239 15.7678 202.522 15.7678C199.806 15.7678 197.879 17.343 196.65 19.0525L177.851 45.5628H178.29L196.65 19.6671C197.879 17.9576 199.672 16.3823 202.522 16.3823Z" fill="url(#paint77_linear_2_228)"/>
<path d="M202.522 16.3823C205.239 16.3823 207.036 17.8285 208.307 19.6671L226.13 45.4646H226.554L208.307 19.0525C207.036 17.2139 205.239 15.7678 202.522 15.7678C199.806 15.7678 197.879 17.343 196.65 19.0525L177.851 45.5628H178.29L196.65 19.6671C197.879 17.9576 199.672 16.3823 202.522 16.3823Z" fill="url(#paint78_linear_2_228)"/>
<path d="M191.635 41.2554L202.352 26.1074L207.61 33.8648C208.575 35.2696 209.799 37.0617 210.59 38.1153C210.44 38.105 210.285 38.0998 210.12 38.0895C210.285 38.3219 210.445 38.5388 210.59 38.7299C209.19 38.6421 207.129 38.6421 205.373 38.6421H198.014L195.612 41.9475C197.461 42.3039 199.134 43.3626 200.591 45.1341C200.715 45.2839 200.828 45.4182 200.947 45.5576H213.632L215.537 43.6054L217.025 45.5576H221.621C222.169 45.5008 222.773 45.4698 223.465 45.4698L226.135 45.4595L208.312 19.6619C207.042 17.8233 205.244 16.3772 202.528 16.3772C199.811 16.3772 197.885 17.9524 196.655 19.6619L178.295 45.5576H188.025C188.454 44.9585 188.976 44.4111 189.6 43.9359C189.693 43.8688 189.786 43.8068 189.874 43.7396L190.447 42.934L191.635 41.2554ZM188.113 45.2529H179.643L197.404 20.2042C198.825 18.2261 200.451 17.3017 202.522 17.3017C204.594 17.3017 206.205 18.2468 207.548 20.1887L224.798 45.1599H223.46C222.778 45.1599 222.159 45.1909 221.57 45.2529H217.479L215.625 42.81L213.239 45.2529H201.376L201.304 45.1651C199.971 43.5434 198.458 42.4485 196.785 41.901L198.484 39.5614H205.373C207.145 39.5614 209.159 39.5614 210.528 39.6492L212.526 39.7732L211.323 38.1721C210.616 37.227 209.515 35.6259 208.627 34.3348L202.362 25.1003L188.108 45.2581L188.113 45.2529Z" fill="url(#paint79_linear_2_228)"/>
<path d="M191.635 41.2554L202.352 26.1074L207.61 33.8648C208.575 35.2696 209.799 37.0617 210.59 38.1153C210.44 38.105 210.285 38.0998 210.12 38.0895C210.285 38.3219 210.445 38.5388 210.59 38.7299C209.19 38.6421 207.129 38.6421 205.373 38.6421H198.014L195.612 41.9475C197.461 42.3039 199.134 43.3626 200.591 45.1341C200.715 45.2839 200.828 45.4182 200.947 45.5576H213.632L215.537 43.6054L217.025 45.5576H221.621C222.169 45.5008 222.773 45.4698 223.465 45.4698L226.135 45.4595L208.312 19.6619C207.042 17.8233 205.244 16.3772 202.528 16.3772C199.811 16.3772 197.885 17.9524 196.655 19.6619L178.295 45.5576H188.025C188.454 44.9585 188.976 44.4111 189.6 43.9359C189.693 43.8688 189.786 43.8068 189.874 43.7396L190.447 42.934L191.635 41.2554ZM188.113 45.2529H179.643L197.404 20.2042C198.825 18.2261 200.451 17.3017 202.522 17.3017C204.594 17.3017 206.205 18.2468 207.548 20.1887L224.798 45.1599H223.46C222.778 45.1599 222.159 45.1909 221.57 45.2529H217.479L215.625 42.81L213.239 45.2529H201.376L201.304 45.1651C199.971 43.5434 198.458 42.4485 196.785 41.901L198.484 39.5614H205.373C207.145 39.5614 209.159 39.5614 210.528 39.6492L212.526 39.7732L211.323 38.1721C210.616 37.227 209.515 35.6259 208.627 34.3348L202.362 25.1003L188.108 45.2581L188.113 45.2529Z" fill="url(#paint80_linear_2_228)"/>
<path d="M191.635 41.2554L202.352 26.1074L207.61 33.8648C208.575 35.2696 209.799 37.0617 210.59 38.1153C210.44 38.105 210.285 38.0998 210.12 38.0895C210.285 38.3219 210.445 38.5388 210.59 38.7299C209.19 38.6421 207.129 38.6421 205.373 38.6421H198.014L195.612 41.9475C197.461 42.3039 199.134 43.3626 200.591 45.1341C200.715 45.2839 200.828 45.4182 200.947 45.5576H213.632L215.537 43.6054L217.025 45.5576H221.621C222.169 45.5008 222.773 45.4698 223.465 45.4698L226.135 45.4595L208.312 19.6619C207.042 17.8233 205.244 16.3772 202.528 16.3772C199.811 16.3772 197.885 17.9524 196.655 19.6619L178.295 45.5576H188.025C188.454 44.9585 188.976 44.4111 189.6 43.9359C189.693 43.8688 189.786 43.8068 189.874 43.7396L190.447 42.934L191.635 41.2554ZM188.113 45.2529H179.643L197.404 20.2042C198.825 18.2261 200.451 17.3017 202.522 17.3017C204.594 17.3017 206.205 18.2468 207.548 20.1887L224.798 45.1599H223.46C222.778 45.1599 222.159 45.1909 221.57 45.2529H217.479L215.625 42.81L213.239 45.2529H201.376L201.304 45.1651C199.971 43.5434 198.458 42.4485 196.785 41.901L198.484 39.5614H205.373C207.145 39.5614 209.159 39.5614 210.528 39.6492L212.526 39.7732L211.323 38.1721C210.616 37.227 209.515 35.6259 208.627 34.3348L202.362 25.1003L188.108 45.2581L188.113 45.2529Z" fill="url(#paint81_linear_2_228)"/>
<path d="M230.794 45.1444H232.204C232.039 44.6538 231.956 44.1322 231.956 43.6002C231.956 42.3297 232.441 41.178 233.366 40.2586C234.285 39.3393 235.452 38.8539 236.749 38.8539C237.203 38.8539 237.642 38.9158 238.061 39.0398V28.8344H230.794V45.1444Z" fill="url(#paint82_linear_2_228)"/>
<path d="M230.794 45.1444H232.204C232.039 44.6538 231.956 44.1322 231.956 43.6002C231.956 42.3297 232.441 41.178 233.366 40.2586C234.285 39.3393 235.452 38.8539 236.749 38.8539C237.203 38.8539 237.642 38.9158 238.061 39.0398V28.8344H230.794V45.1444Z" fill="url(#paint83_linear_2_228)"/>
<path d="M249.5 39.5666H239.233C239.538 39.7577 239.822 39.9901 240.09 40.2535C241.01 41.178 241.495 42.3297 241.495 43.595C241.495 44.1167 241.412 44.628 241.258 45.1031L251.163 45.0721C251.329 45.0721 251.509 45.0876 251.685 45.1031L251.845 45.1134C254.319 44.85 256.581 44.1941 258.58 43.1664L257.903 35.7086C256.323 38.0895 253.296 39.5614 249.5 39.5614V39.5666Z" fill="url(#paint84_linear_2_228)"/>
<path d="M249.5 39.5666H239.233C239.538 39.7577 239.822 39.9901 240.09 40.2535C241.01 41.178 241.495 42.3297 241.495 43.595C241.495 44.1167 241.412 44.628 241.258 45.1031L251.163 45.0721C251.329 45.0721 251.509 45.0876 251.685 45.1031L251.845 45.1134C254.319 44.85 256.581 44.1941 258.58 43.1664L257.903 35.7086C256.323 38.0895 253.296 39.5614 249.5 39.5614V39.5666Z" fill="url(#paint85_linear_2_228)"/>
<path d="M249.5 17.7871H236.114L231.729 23.5613H249.5C254.975 23.5613 259.101 27.0319 259.101 31.6285C259.101 32.5375 258.952 33.3948 258.668 34.1798L265.464 26.8615C263.409 21.3508 257.413 17.7871 249.5 17.7871Z" fill="url(#paint86_linear_2_228)"/>
<path d="M249.5 17.7871H236.114L231.729 23.5613H249.5C254.975 23.5613 259.101 27.0319 259.101 31.6285C259.101 32.5375 258.952 33.3948 258.668 34.1798L265.464 26.8615C263.409 21.3508 257.413 17.7871 249.5 17.7871Z" fill="url(#paint87_linear_2_228)"/>
<path d="M249.5 38.6421C254.541 38.6421 258.177 35.8377 258.177 31.6285C258.177 31.5252 258.167 31.4271 258.162 31.3289C257.981 35.3574 254.412 38.0223 249.5 38.0223H238.985V38.6369H249.5V38.6421Z" fill="url(#paint88_linear_2_228)"/>
<path d="M249.5 38.6421C254.541 38.6421 258.177 35.8377 258.177 31.6285C258.177 31.5252 258.167 31.4271 258.162 31.3289C257.981 35.3574 254.412 38.0223 249.5 38.0223H238.985V38.6369H249.5V38.6421Z" fill="url(#paint89_linear_2_228)"/>
<path d="M249.5 16.8627C259.602 16.8627 266.936 22.611 267.148 30.8693C267.148 30.7866 267.158 30.704 267.158 30.6214C267.158 22.1616 259.752 16.2481 249.5 16.2481H235.654L229.869 23.8711H230.339L235.654 16.8627H249.5Z" fill="url(#paint90_linear_2_228)"/>
<path d="M249.5 16.8627C259.602 16.8627 266.936 22.611 267.148 30.8693C267.148 30.7866 267.158 30.704 267.158 30.6214C267.158 22.1616 259.752 16.2481 249.5 16.2481H235.654L229.869 23.8711H230.339L235.654 16.8627H249.5Z" fill="url(#paint91_linear_2_228)"/>
<path d="M238.985 27.2901H229.869V27.9047H238.985V27.2901Z" fill="url(#paint92_linear_2_228)"/>
<path d="M238.985 27.2901H229.869V27.9047H238.985V27.2901Z" fill="url(#paint93_linear_2_228)"/>
<path d="M249.5 16.8627H235.654L230.339 23.8711H249.506C254.412 23.8711 258.182 26.8925 258.182 31.0139C258.182 31.1223 258.172 31.2256 258.167 31.3289C258.167 31.4271 258.182 31.5252 258.182 31.6285C258.182 35.8377 254.546 38.6421 249.506 38.6421H238.99V27.9047H229.875V45.4543L233.185 45.444C232.891 44.8862 232.741 44.2716 232.741 43.6002C232.741 43.1715 232.808 42.7635 232.937 42.3762C233.061 41.5963 233.428 40.8836 234.022 40.2948C234.76 39.5511 235.711 39.1586 236.754 39.1586C237.797 39.1586 238.696 39.5511 239.445 40.2948C240.044 40.8939 240.405 41.6118 240.529 42.3968C240.653 42.779 240.72 43.1819 240.72 43.6002C240.72 44.2613 240.576 44.8707 240.287 45.4233L251.169 45.3872C251.385 45.3872 251.633 45.4182 251.861 45.4337C254.655 45.1496 257.196 44.3697 259.37 43.1819L258.662 35.3522L258.843 35.156L258.807 34.7841L265.785 27.2695L265.821 27.6413L265.903 27.5535L266.549 34.6808C266.921 33.4723 267.138 32.1966 267.164 30.8693C266.952 22.611 259.618 16.8627 249.516 16.8627H249.5ZM238.061 39.0346C237.642 38.9107 237.203 38.8487 236.749 38.8487C235.452 38.8487 234.28 39.3342 233.366 40.2535C232.447 41.1728 231.956 42.3297 231.956 43.595C231.956 44.1322 232.039 44.6486 232.204 45.1341H230.794V28.8292H238.061V39.0346ZM251.845 45.1186L251.685 45.1083C251.509 45.0928 251.329 45.0773 251.163 45.0773L241.258 45.1083C241.418 44.628 241.495 44.1218 241.495 43.6002C241.495 42.3349 241.01 41.1831 240.09 40.2586C239.822 39.9901 239.538 39.7628 239.233 39.5718H249.5C253.296 39.5718 256.323 38.0998 257.903 35.7189L258.58 43.1767C256.581 44.2096 254.319 44.8604 251.845 45.1238V45.1186ZM258.673 34.185C258.957 33.3948 259.107 32.5426 259.107 31.6336C259.107 27.0371 254.98 23.5664 249.506 23.5664H231.734L236.119 17.7923H249.506C257.418 17.7923 263.419 21.3611 265.47 26.8666L258.673 34.185Z" fill="url(#paint94_linear_2_228)"/>
<path d="M249.5 16.8627H235.654L230.339 23.8711H249.506C254.412 23.8711 258.182 26.8925 258.182 31.0139C258.182 31.1223 258.172 31.2256 258.167 31.3289C258.167 31.4271 258.182 31.5252 258.182 31.6285C258.182 35.8377 254.546 38.6421 249.506 38.6421H238.99V27.9047H229.875V45.4543L233.185 45.444C232.891 44.8862 232.741 44.2716 232.741 43.6002C232.741 43.1715 232.808 42.7635 232.937 42.3762C233.061 41.5963 233.428 40.8836 234.022 40.2948C234.76 39.5511 235.711 39.1586 236.754 39.1586C237.797 39.1586 238.696 39.5511 239.445 40.2948C240.044 40.8939 240.405 41.6118 240.529 42.3968C240.653 42.779 240.72 43.1819 240.72 43.6002C240.72 44.2613 240.576 44.8707 240.287 45.4233L251.169 45.3872C251.385 45.3872 251.633 45.4182 251.861 45.4337C254.655 45.1496 257.196 44.3697 259.37 43.1819L258.662 35.3522L258.843 35.156L258.807 34.7841L265.785 27.2695L265.821 27.6413L265.903 27.5535L266.549 34.6808C266.921 33.4723 267.138 32.1966 267.164 30.8693C266.952 22.611 259.618 16.8627 249.516 16.8627H249.5ZM238.061 39.0346C237.642 38.9107 237.203 38.8487 236.749 38.8487C235.452 38.8487 234.28 39.3342 233.366 40.2535C232.447 41.1728 231.956 42.3297 231.956 43.595C231.956 44.1322 232.039 44.6486 232.204 45.1341H230.794V28.8292H238.061V39.0346ZM251.845 45.1186L251.685 45.1083C251.509 45.0928 251.329 45.0773 251.163 45.0773L241.258 45.1083C241.418 44.628 241.495 44.1218 241.495 43.6002C241.495 42.3349 241.01 41.1831 240.09 40.2586C239.822 39.9901 239.538 39.7628 239.233 39.5718H249.5C253.296 39.5718 256.323 38.0998 257.903 35.7189L258.58 43.1767C256.581 44.2096 254.319 44.8604 251.845 45.1238V45.1186ZM258.673 34.185C258.957 33.3948 259.107 32.5426 259.107 31.6336C259.107 27.0371 254.98 23.5664 249.506 23.5664H231.734L236.119 17.7923H249.506C257.418 17.7923 263.419 21.3611 265.47 26.8666L258.673 34.185Z" fill="url(#paint95_linear_2_228)"/>
<path d="M249.5 16.8627H235.654L230.339 23.8711H249.506C254.412 23.8711 258.182 26.8925 258.182 31.0139C258.182 31.1223 258.172 31.2256 258.167 31.3289C258.167 31.4271 258.182 31.5252 258.182 31.6285C258.182 35.8377 254.546 38.6421 249.506 38.6421H238.99V27.9047H229.875V45.4543L233.185 45.444C232.891 44.8862 232.741 44.2716 232.741 43.6002C232.741 43.1715 232.808 42.7635 232.937 42.3762C233.061 41.5963 233.428 40.8836 234.022 40.2948C234.76 39.5511 235.711 39.1586 236.754 39.1586C237.797 39.1586 238.696 39.5511 239.445 40.2948C240.044 40.8939 240.405 41.6118 240.529 42.3968C240.653 42.779 240.72 43.1819 240.72 43.6002C240.72 44.2613 240.576 44.8707 240.287 45.4233L251.169 45.3872C251.385 45.3872 251.633 45.4182 251.861 45.4337C254.655 45.1496 257.196 44.3697 259.37 43.1819L258.662 35.3522L258.843 35.156L258.807 34.7841L265.785 27.2695L265.821 27.6413L265.903 27.5535L266.549 34.6808C266.921 33.4723 267.138 32.1966 267.164 30.8693C266.952 22.611 259.618 16.8627 249.516 16.8627H249.5ZM238.061 39.0346C237.642 38.9107 237.203 38.8487 236.749 38.8487C235.452 38.8487 234.28 39.3342 233.366 40.2535C232.447 41.1728 231.956 42.3297 231.956 43.595C231.956 44.1322 232.039 44.6486 232.204 45.1341H230.794V28.8292H238.061V39.0346ZM251.845 45.1186L251.685 45.1083C251.509 45.0928 251.329 45.0773 251.163 45.0773L241.258 45.1083C241.418 44.628 241.495 44.1218 241.495 43.6002C241.495 42.3349 241.01 41.1831 240.09 40.2586C239.822 39.9901 239.538 39.7628 239.233 39.5718H249.5C253.296 39.5718 256.323 38.0998 257.903 35.7189L258.58 43.1767C256.581 44.2096 254.319 44.8604 251.845 45.1238V45.1186ZM258.673 34.185C258.957 33.3948 259.107 32.5426 259.107 31.6336C259.107 27.0371 254.98 23.5664 249.506 23.5664H231.734L236.119 17.7923H249.506C257.418 17.7923 263.419 21.3611 265.47 26.8666L258.673 34.185Z" fill="url(#paint96_linear_2_228)"/>
<path d="M280.039 17.7871H272.819V45.2529H280.039V17.7871Z" fill="url(#paint97_linear_2_228)"/>
<path d="M280.039 17.7871H272.819V45.2529H280.039V17.7871Z" fill="url(#paint98_linear_2_228)"/>
<path d="M280.964 16.2481H271.894V16.8627H280.964V16.2481Z" fill="url(#paint99_linear_2_228)"/>
<path d="M280.964 16.2481H271.894V16.8627H280.964V16.2481Z" fill="url(#paint100_linear_2_228)"/>
<path d="M280.964 16.8627H271.894V45.5628H280.964V16.8627ZM280.039 45.2529H272.819V17.7871H280.039V45.2529Z" fill="url(#paint101_linear_2_228)"/>
<path d="M280.964 16.8627H271.894V45.5628H280.964V16.8627ZM280.039 45.2529H272.819V17.7871H280.039V45.2529Z" fill="url(#paint102_linear_2_228)"/>
<path d="M280.964 16.8627H271.894V45.5628H280.964V16.8627ZM280.039 45.2529H272.819V17.7871H280.039V45.2529Z" fill="url(#paint103_linear_2_228)"/>
</g>
<defs>
<linearGradient id="paint0_linear_2_228" x1="124.753" y1="54.6268" x2="124.753" y2="60.1736" gradientUnits="userSpaceOnUse">
<stop offset="0.1" stop-color="#BCBEC0"/>
<stop offset="0.17" stop-color="#808285"/>
<stop offset="0.37" stop-color="#BCBEC0"/>
<stop offset="0.49" stop-color="#A7A9AC"/>
<stop offset="0.7" stop-color="#BCBEC0"/>
<stop offset="0.87" stop-color="#808285"/>
</linearGradient>
<linearGradient id="paint1_linear_2_228" x1="102.436" y1="50.0354" x2="149.424" y2="69.4494" gradientUnits="userSpaceOnUse">
<stop offset="0.1" stop-color="#BCBEC0"/>
<stop offset="0.17" stop-color="#808285"/>
<stop offset="0.37" stop-color="#BCBEC0"/>
<stop offset="0.49" stop-color="#A7A9AC"/>
<stop offset="0.7" stop-color="#BCBEC0"/>
<stop offset="0.87" stop-color="#808285"/>
</linearGradient>
<linearGradient id="paint2_linear_2_228" x1="98.9087" y1="58.5778" x2="145.897" y2="77.9918" gradientUnits="userSpaceOnUse">
<stop offset="0.1" stop-color="#BCBEC0"/>
<stop offset="0.17" stop-color="#808285"/>
<stop offset="0.37" stop-color="#BCBEC0"/>
<stop offset="0.49" stop-color="#A7A9AC"/>
<stop offset="0.7" stop-color="#BCBEC0"/>
<stop offset="0.87" stop-color="#808285"/>
</linearGradient>
<linearGradient id="paint3_linear_2_228" x1="103.738" y1="46.9004" x2="150.726" y2="66.3093" gradientUnits="userSpaceOnUse">
<stop offset="0.1" stop-color="#BCBEC0"/>
<stop offset="0.17" stop-color="#808285"/>
<stop offset="0.37" stop-color="#BCBEC0"/>
<stop offset="0.49" stop-color="#A7A9AC"/>
<stop offset="0.7" stop-color="#BCBEC0"/>
<stop offset="0.87" stop-color="#808285"/>
</linearGradient>
<linearGradient id="paint4_linear_2_228" x1="85.6975" y1="31.52" x2="127.371" y2="31.52" gradientUnits="userSpaceOnUse">
<stop offset="0.06" stop-color="#088F8F"/>
<stop offset="0.2" stop-color="#047472"/>
<stop offset="0.54" stop-color="#088F8F"/>
<stop offset="0.91" stop-color="#036D6A"/>
</linearGradient>
<linearGradient id="paint5_linear_2_228" x1="83.8072" y1="31.52" x2="129.515" y2="31.52" gradientUnits="userSpaceOnUse">
<stop offset="0.06" stop-color="#088F8F"/>
<stop offset="0.2" stop-color="#047472"/>
<stop offset="0.54" stop-color="#088F8F"/>
<stop offset="0.91" stop-color="#036D6A"/>
</linearGradient>
<linearGradient id="paint6_linear_2_228" x1="130.744" y1="31.2824" x2="139.818" y2="31.2824" gradientUnits="userSpaceOnUse">
<stop offset="0.06" stop-color="#088F8F"/>
<stop offset="0.2" stop-color="#047472"/>
<stop offset="0.54" stop-color="#088F8F"/>
<stop offset="0.91" stop-color="#036D6A"/>
</linearGradient>
<linearGradient id="paint7_linear_2_228" x1="129.819" y1="31.2824" x2="140.743" y2="31.2824" gradientUnits="userSpaceOnUse">
<stop offset="0.06" stop-color="#088F8F"/>
<stop offset="0.2" stop-color="#047472"/>
<stop offset="0.54" stop-color="#088F8F"/>
<stop offset="0.91" stop-color="#036D6A"/>
</linearGradient>
<linearGradient id="paint8_linear_2_228" x1="143.056" y1="4.2369e-06" x2="187.447" y2="4.2369e-06" gradientUnits="userSpaceOnUse">
<stop offset="0.06" stop-color="#088F8F"/>
<stop offset="0.2" stop-color="#047472"/>
<stop offset="0.54" stop-color="#088F8F"/>
<stop offset="0.91" stop-color="#036D6A"/>
</linearGradient>
<linearGradient id="paint9_linear_2_228" x1="140.965" y1="31.52" x2="189.502" y2="31.52" gradientUnits="userSpaceOnUse">
<stop offset="0.06" stop-color="#088F8F"/>
<stop offset="0.2" stop-color="#047472"/>
<stop offset="0.54" stop-color="#088F8F"/>
<stop offset="0.91" stop-color="#036D6A"/>
</linearGradient>
<linearGradient id="paint10_linear_2_228" x1="106.532" y1="18.2675" x2="106.532" y2="42.9185" gradientUnits="userSpaceOnUse">
<stop offset="0.06" stop-color="#088F8F"/>
<stop offset="0.2" stop-color="#047472"/>
<stop offset="0.54" stop-color="#088F8F"/>
<stop offset="0.91" stop-color="#036D6A"/>
</linearGradient>
<linearGradient id="paint11_linear_2_228" x1="135.278" y1="18.2675" x2="135.278" y2="42.9185" gradientUnits="userSpaceOnUse">
<stop offset="0.06" stop-color="#088F8F"/>
<stop offset="0.2" stop-color="#047472"/>
<stop offset="0.54" stop-color="#088F8F"/>
<stop offset="0.91" stop-color="#036D6A"/>
</linearGradient>
<linearGradient id="paint12_linear_2_228" x1="165.254" y1="18.2675" x2="165.254" y2="42.9185" gradientUnits="userSpaceOnUse">
<stop offset="0.06" stop-color="#088F8F"/>
<stop offset="0.2" stop-color="#047472"/>
<stop offset="0.54" stop-color="#088F8F"/>
<stop offset="0.91" stop-color="#036D6A"/>
</linearGradient>
<linearGradient id="paint13_linear_2_228" x1="182.783" y1="55.8353" x2="209.949" y2="55.8353" gradientUnits="userSpaceOnUse">
<stop offset="0.06" stop-color="#088F8F"/>
<stop offset="0.2" stop-color="#047472"/>
<stop offset="0.54" stop-color="#088F8F"/>
<stop offset="0.91" stop-color="#036D6A"/>
</linearGradient>
<linearGradient id="paint14_linear_2_228" x1="181.859" y1="55.8353" x2="212.18" y2="55.8353" gradientUnits="userSpaceOnUse">
<stop offset="0.06" stop-color="#088F8F"/>
<stop offset="0.2" stop-color="#047472"/>
<stop offset="0.54" stop-color="#088F8F"/>
<stop offset="0.91" stop-color="#036D6A"/>
</linearGradient>
<linearGradient id="paint15_linear_2_228" x1="205.141" y1="53.5422" x2="259.194" y2="53.5422" gradientUnits="userSpaceOnUse">
<stop offset="0.06" stop-color="#088F8F"/>
<stop offset="0.2" stop-color="#047472"/>
<stop offset="0.54" stop-color="#088F8F"/>
<stop offset="0.91" stop-color="#036D6A"/>
</linearGradient>
<linearGradient id="paint16_linear_2_228" x1="202.92" y1="53.2995" x2="260.114" y2="53.2995" gradientUnits="userSpaceOnUse">
<stop offset="0.06" stop-color="#088F8F"/>
<stop offset="0.2" stop-color="#047472"/>
<stop offset="0.54" stop-color="#088F8F"/>
<stop offset="0.91" stop-color="#036D6A"/>
</linearGradient>
<linearGradient id="paint17_linear_2_228" x1="234.435" y1="43.6209" x2="239.011" y2="43.6209" gradientUnits="userSpaceOnUse">
<stop offset="0.06" stop-color="#088F8F"/>
<stop offset="0.2" stop-color="#047472"/>
<stop offset="0.54" stop-color="#088F8F"/>
<stop offset="0.91" stop-color="#036D6A"/>
</linearGradient>
<linearGradient id="paint18_linear_2_228" x1="233.511" y1="43.6209" x2="239.935" y2="43.6209" gradientUnits="userSpaceOnUse">
<stop offset="0.06" stop-color="#088F8F"/>
<stop offset="0.2" stop-color="#047472"/>
<stop offset="0.54" stop-color="#088F8F"/>
<stop offset="0.91" stop-color="#036D6A"/>
</linearGradient>
<linearGradient id="paint19_linear_2_228" x1="260.418" y1="45.9914" x2="268.491" y2="45.9914" gradientUnits="userSpaceOnUse">
<stop offset="0.06" stop-color="#088F8F"/>
<stop offset="0.2" stop-color="#047472"/>
<stop offset="0.54" stop-color="#088F8F"/>
<stop offset="0.91" stop-color="#036D6A"/>
</linearGradient>
<linearGradient id="paint20_linear_2_228" x1="259.458" y1="45.1548" x2="270.707" y2="45.1548" gradientUnits="userSpaceOnUse">
<stop offset="0.06" stop-color="#088F8F"/>
<stop offset="0.2" stop-color="#047472"/>
<stop offset="0.54" stop-color="#088F8F"/>
<stop offset="0.91" stop-color="#036D6A"/>
</linearGradient>
<linearGradient id="paint21_linear_2_228" x1="265.402" y1="65.0801" x2="270.799" y2="65.0801" gradientUnits="userSpaceOnUse">
<stop offset="0.06" stop-color="#088F8F"/>
<stop offset="0.2" stop-color="#047472"/>
<stop offset="0.54" stop-color="#088F8F"/>
<stop offset="0.91" stop-color="#036D6A"/>
</linearGradient>
<linearGradient id="paint22_linear_2_228" x1="264.478" y1="65.0801" x2="271.724" y2="65.0801" gradientUnits="userSpaceOnUse">
<stop offset="0.06" stop-color="#088F8F"/>
<stop offset="0.2" stop-color="#047472"/>
<stop offset="0.54" stop-color="#088F8F"/>
<stop offset="0.91" stop-color="#036D6A"/>
</linearGradient>
<linearGradient id="paint23_linear_2_228" x1="263.683" y1="54.5235" x2="281.32" y2="54.5235" gradientUnits="userSpaceOnUse">
<stop offset="0.06" stop-color="#088F8F"/>
<stop offset="0.2" stop-color="#047472"/>
<stop offset="0.54" stop-color="#088F8F"/>
<stop offset="0.91" stop-color="#036D6A"/>
</linearGradient>
<linearGradient id="paint24_linear_2_228" x1="261.462" y1="54.5235" x2="282.281" y2="54.5235" gradientUnits="userSpaceOnUse">
<stop offset="0.06" stop-color="#088F8F"/>
<stop offset="0.2" stop-color="#047472"/>
<stop offset="0.54" stop-color="#088F8F"/>
<stop offset="0.91" stop-color="#036D6A"/>
</linearGradient>
<linearGradient id="paint25_linear_2_228" x1="270.939" y1="65.0801" x2="276.377" y2="65.0801" gradientUnits="userSpaceOnUse">
<stop offset="0.06" stop-color="#088F8F"/>
<stop offset="0.2" stop-color="#047472"/>
<stop offset="0.54" stop-color="#088F8F"/>
<stop offset="0.91" stop-color="#036D6A"/>
</linearGradient>
<linearGradient id="paint26_linear_2_228" x1="270.014" y1="65.0801" x2="277.302" y2="65.0801" gradientUnits="userSpaceOnUse">
<stop offset="0.06" stop-color="#088F8F"/>
<stop offset="0.2" stop-color="#047472"/>
<stop offset="0.54" stop-color="#088F8F"/>
<stop offset="0.91" stop-color="#036D6A"/>
</linearGradient>
<linearGradient id="paint27_linear_2_228" x1="281.041" y1="57.0593" x2="290.751" y2="57.0593" gradientUnits="userSpaceOnUse">
<stop offset="0.06" stop-color="#088F8F"/>
<stop offset="0.2" stop-color="#047472"/>
<stop offset="0.54" stop-color="#088F8F"/>
<stop offset="0.91" stop-color="#036D6A"/>
</linearGradient>
<linearGradient id="paint28_linear_2_228" x1="280.117" y1="56.5325" x2="291.675" y2="56.5325" gradientUnits="userSpaceOnUse">
<stop offset="0.06" stop-color="#088F8F"/>
<stop offset="0.2" stop-color="#047472"/>
<stop offset="0.54" stop-color="#088F8F"/>
<stop offset="0.91" stop-color="#036D6A"/>
</linearGradient>
<linearGradient id="paint29_linear_2_228" x1="200.446" y1="63.7786" x2="211.23" y2="79.4895" gradientUnits="userSpaceOnUse">
<stop offset="0.06" stop-color="#088F8F"/>
<stop offset="0.2" stop-color="#047472"/>
<stop offset="0.54" stop-color="#088F8F"/>
<stop offset="0.91" stop-color="#036D6A"/>
</linearGradient>
<linearGradient id="paint30_linear_2_228" x1="225.769" y1="46.3994" x2="236.553" y2="62.1156" gradientUnits="userSpaceOnUse">
<stop offset="0.06" stop-color="#088F8F"/>
<stop offset="0.2" stop-color="#047472"/>
<stop offset="0.54" stop-color="#088F8F"/>
<stop offset="0.91" stop-color="#036D6A"/>
</linearGradient>
<linearGradient id="paint31_linear_2_228" x1="234.802" y1="40.2018" x2="245.586" y2="55.9128" gradientUnits="userSpaceOnUse">
<stop offset="0.06" stop-color="#088F8F"/>
<stop offset="0.2" stop-color="#047472"/>
<stop offset="0.54" stop-color="#088F8F"/>
<stop offset="0.91" stop-color="#036D6A"/>
</linearGradient>
<linearGradient id="paint32_linear_2_228" x1="251.959" y1="28.4264" x2="262.743" y2="44.1425" gradientUnits="userSpaceOnUse">
<stop offset="0.06" stop-color="#088F8F"/>
<stop offset="0.2" stop-color="#047472"/>
<stop offset="0.54" stop-color="#088F8F"/>
<stop offset="0.91" stop-color="#036D6A"/>
</linearGradient>
<linearGradient id="paint33_linear_2_228" x1="246.102" y1="32.4445" x2="256.886" y2="48.1606" gradientUnits="userSpaceOnUse">
<stop offset="0.06" stop-color="#088F8F"/>
<stop offset="0.2" stop-color="#047472"/>
<stop offset="0.54" stop-color="#088F8F"/>
<stop offset="0.91" stop-color="#036D6A"/>
</linearGradient>
<linearGradient id="paint34_linear_2_228" x1="253.844" y1="27.13" x2="264.628" y2="42.8462" gradientUnits="userSpaceOnUse">
<stop offset="0.06" stop-color="#088F8F"/>
<stop offset="0.2" stop-color="#047472"/>
<stop offset="0.54" stop-color="#088F8F"/>
<stop offset="0.91" stop-color="#036D6A"/>
</linearGradient>
<linearGradient id="paint35_linear_2_228" x1="249.877" y1="29.8519" x2="260.661" y2="45.568" gradientUnits="userSpaceOnUse">
<stop offset="0.06" stop-color="#088F8F"/>
<stop offset="0.2" stop-color="#047472"/>
<stop offset="0.54" stop-color="#088F8F"/>
<stop offset="0.91" stop-color="#036D6A"/>
</linearGradient>
<linearGradient id="paint36_linear_2_228" x1="261.56" y1="21.8362" x2="272.344" y2="37.5472" gradientUnits="userSpaceOnUse">
<stop offset="0.06" stop-color="#088F8F"/>
<stop offset="0.2" stop-color="#047472"/>
<stop offset="0.54" stop-color="#088F8F"/>
<stop offset="0.91" stop-color="#036D6A"/>
</linearGradient>
<linearGradient id="paint37_linear_2_228" x1="36.7725" y1="48.0005" x2="74.769" y2="48.0005" gradientUnits="userSpaceOnUse">
<stop offset="0.06" stop-color="#088F8F"/>
<stop offset="0.2" stop-color="#047472"/>
<stop offset="0.54" stop-color="#088F8F"/>
<stop offset="0.91" stop-color="#036D6A"/>
</linearGradient>
<linearGradient id="paint38_linear_2_228" x1="10.2622" y1="39.0708" x2="61.7076" y2="39.0708" gradientUnits="userSpaceOnUse">
<stop offset="0.06" stop-color="#088F8F"/>
<stop offset="0.2" stop-color="#047472"/>
<stop offset="0.54" stop-color="#088F8F"/>
<stop offset="0.91" stop-color="#036D6A"/>
</linearGradient>
<linearGradient id="paint39_linear_2_228" x1="59.6004" y1="6.36805" x2="73.0492" y2="6.36805" gradientUnits="userSpaceOnUse">
<stop offset="0.1" stop-color="#BCBEC0"/>
<stop offset="0.17" stop-color="#808285"/>
<stop offset="0.37" stop-color="#BCBEC0"/>
<stop offset="0.49" stop-color="#A7A9AC"/>
<stop offset="0.7" stop-color="#BCBEC0"/>
<stop offset="0.87" stop-color="#808285"/>
</linearGradient>
<linearGradient id="paint40_linear_2_228" x1="46.8901" y1="21.1184" x2="43.9927" y2="58.836" gradientUnits="userSpaceOnUse">
<stop offset="0.1" stop-color="#BCBEC0"/>
<stop offset="0.17" stop-color="#808285"/>
<stop offset="0.37" stop-color="#BCBEC0"/>
<stop offset="0.49" stop-color="#A7A9AC"/>
<stop offset="0.7" stop-color="#BCBEC0"/>
<stop offset="0.87" stop-color="#808285"/>
</linearGradient>
<linearGradient id="paint41_linear_2_228" x1="23.4425" y1="17.1777" x2="72.7445" y2="17.1777" gradientUnits="userSpaceOnUse">
<stop offset="0.06" stop-color="#088F8F"/>
<stop offset="0.2" stop-color="#047472"/>
<stop offset="0.54" stop-color="#088F8F"/>
<stop offset="0.91" stop-color="#036D6A"/>
</linearGradient>
<linearGradient id="paint42_linear_2_228" x1="43.0889" y1="28.039" x2="43.0889" y2="9.61147" gradientUnits="userSpaceOnUse">
<stop offset="0.06" stop-color="#088F8F"/>
<stop offset="0.2" stop-color="#047472"/>
<stop offset="0.54" stop-color="#088F8F"/>
<stop offset="0.91" stop-color="#036D6A"/>
</linearGradient>
<linearGradient id="paint43_linear_2_228" x1="35.9823" y1="52.6384" x2="35.9823" y2="25.498" gradientUnits="userSpaceOnUse">
<stop offset="0.06" stop-color="#088F8F"/>
<stop offset="0.2" stop-color="#047472"/>
<stop offset="0.54" stop-color="#088F8F"/>
<stop offset="0.91" stop-color="#036D6A"/>
</linearGradient>
<linearGradient id="paint44_linear_2_228" x1="55.7733" y1="58.8773" x2="55.7733" y2="37.1237" gradientUnits="userSpaceOnUse">
<stop offset="0.06" stop-color="#088F8F"/>
<stop offset="0.2" stop-color="#047472"/>
<stop offset="0.54" stop-color="#088F8F"/>
<stop offset="0.91" stop-color="#036D6A"/>
</linearGradient>
<linearGradient id="paint45_linear_2_228" x1="46.0224" y1="62.1207" x2="46.0224" y2="2.51003" gradientUnits="userSpaceOnUse">
<stop offset="0.1" stop-color="#BCBEC0"/>
<stop offset="0.17" stop-color="#808285"/>
<stop offset="0.37" stop-color="#BCBEC0"/>
<stop offset="0.49" stop-color="#A7A9AC"/>
<stop offset="0.7" stop-color="#BCBEC0"/>
<stop offset="0.87" stop-color="#808285"/>
</linearGradient>
<linearGradient id="paint46_linear_2_228" x1="176.064" y1="46.6422" x2="228.315" y2="46.6422" gradientUnits="userSpaceOnUse">
<stop offset="0.06" stop-color="#088F8F"/>
<stop offset="0.2" stop-color="#047472"/>
<stop offset="0.54" stop-color="#088F8F"/>
<stop offset="0.91" stop-color="#036D6A"/>
</linearGradient>
<linearGradient id="paint47_linear_2_228" x1="176.064" y1="31.2824" x2="228.315" y2="31.2824" gradientUnits="userSpaceOnUse">
<stop offset="0.06" stop-color="#088F8F"/>
<stop offset="0.2" stop-color="#047472"/>
<stop offset="0.54" stop-color="#088F8F"/>
<stop offset="0.91" stop-color="#036D6A"/>
</linearGradient>
<linearGradient id="paint48_linear_2_228" x1="176.064" y1="34.9804" x2="228.315" y2="34.9804" gradientUnits="userSpaceOnUse">
<stop offset="0.06" stop-color="#088F8F"/>
<stop offset="0.2" stop-color="#047472"/>
<stop offset="0.54" stop-color="#088F8F"/>
<stop offset="0.91" stop-color="#036D6A"/>
</linearGradient>
<linearGradient id="paint49_linear_2_228" x1="176.064" y1="46.6422" x2="228.315" y2="46.6422" gradientUnits="userSpaceOnUse">
<stop offset="0.06" stop-color="#088F8F"/>
<stop offset="0.2" stop-color="#047472"/>
<stop offset="0.54" stop-color="#088F8F"/>
<stop offset="0.91" stop-color="#036D6A"/>
</linearGradient>
<linearGradient id="paint50_linear_2_228" x1="177.851" y1="44.065" x2="226.554" y2="44.065" gradientUnits="userSpaceOnUse">
<stop offset="0.06" stop-color="#088F8F"/>
<stop offset="0.2" stop-color="#047472"/>
<stop offset="0.54" stop-color="#088F8F"/>
<stop offset="0.91" stop-color="#036D6A"/>
</linearGradient>
<linearGradient id="paint51_linear_2_228" x1="176.064" y1="44.065" x2="228.315" y2="44.065" gradientUnits="userSpaceOnUse">
<stop offset="0.06" stop-color="#088F8F"/>
<stop offset="0.2" stop-color="#047472"/>
<stop offset="0.54" stop-color="#088F8F"/>
<stop offset="0.91" stop-color="#036D6A"/>
</linearGradient>
<linearGradient id="paint52_linear_2_228" x1="177.851" y1="45.8727" x2="226.554" y2="45.8727" gradientUnits="userSpaceOnUse">
<stop offset="0.06" stop-color="#088F8F"/>
<stop offset="0.2" stop-color="#047472"/>
<stop offset="0.54" stop-color="#088F8F"/>
<stop offset="0.91" stop-color="#036D6A"/>
</linearGradient>
<linearGradient id="paint53_linear_2_228" x1="176.064" y1="45.8727" x2="228.315" y2="45.8727" gradientUnits="userSpaceOnUse">
<stop offset="0.06" stop-color="#088F8F"/>
<stop offset="0.2" stop-color="#047472"/>
<stop offset="0.54" stop-color="#088F8F"/>
<stop offset="0.91" stop-color="#036D6A"/>
</linearGradient>
<linearGradient id="paint54_linear_2_228" x1="177.851" y1="34.9235" x2="226.554" y2="34.9235" gradientUnits="userSpaceOnUse">
<stop offset="0.06" stop-color="#088F8F"/>
<stop offset="0.2" stop-color="#047472"/>
<stop offset="0.54" stop-color="#088F8F"/>
<stop offset="0.91" stop-color="#036D6A"/>
</linearGradient>
<linearGradient id="paint55_linear_2_228" x1="176.064" y1="34.9235" x2="228.315" y2="34.9235" gradientUnits="userSpaceOnUse">
<stop offset="0.06" stop-color="#088F8F"/>
<stop offset="0.2" stop-color="#047472"/>
<stop offset="0.54" stop-color="#088F8F"/>
<stop offset="0.91" stop-color="#036D6A"/>
</linearGradient>
<linearGradient id="paint56_linear_2_228" x1="228.005" y1="45.1031" x2="268.083" y2="45.1031" gradientUnits="userSpaceOnUse">
<stop offset="0.06" stop-color="#088F8F"/>
<stop offset="0.2" stop-color="#047472"/>
<stop offset="0.54" stop-color="#088F8F"/>
<stop offset="0.91" stop-color="#036D6A"/>
</linearGradient>
<linearGradient id="paint57_linear_2_228" x1="228.005" y1="30.9364" x2="268.083" y2="30.9364" gradientUnits="userSpaceOnUse">
<stop offset="0.06" stop-color="#088F8F"/>
<stop offset="0.2" stop-color="#047472"/>
<stop offset="0.54" stop-color="#088F8F"/>
<stop offset="0.91" stop-color="#036D6A"/>
</linearGradient>
<linearGradient id="paint58_linear_2_228" x1="229.869" y1="44.566" x2="267.158" y2="44.566" gradientUnits="userSpaceOnUse">
<stop offset="0.06" stop-color="#088F8F"/>
<stop offset="0.2" stop-color="#047472"/>
<stop offset="0.54" stop-color="#088F8F"/>
<stop offset="0.91" stop-color="#036D6A"/>
</linearGradient>
<linearGradient id="paint59_linear_2_228" x1="228.005" y1="44.566" x2="268.083" y2="44.566" gradientUnits="userSpaceOnUse">
<stop offset="0.06" stop-color="#088F8F"/>
<stop offset="0.2" stop-color="#047472"/>
<stop offset="0.54" stop-color="#088F8F"/>
<stop offset="0.91" stop-color="#036D6A"/>
</linearGradient>
<linearGradient id="paint60_linear_2_228" x1="229.869" y1="31.2101" x2="267.158" y2="31.2101" gradientUnits="userSpaceOnUse">
<stop offset="0.06" stop-color="#088F8F"/>
<stop offset="0.2" stop-color="#047472"/>
<stop offset="0.54" stop-color="#088F8F"/>
<stop offset="0.91" stop-color="#036D6A"/>
</linearGradient>
<linearGradient id="paint61_linear_2_228" x1="228.005" y1="31.2101" x2="268.083" y2="31.2101" gradientUnits="userSpaceOnUse">
<stop offset="0.06" stop-color="#088F8F"/>
<stop offset="0.2" stop-color="#047472"/>
<stop offset="0.54" stop-color="#088F8F"/>
<stop offset="0.91" stop-color="#036D6A"/>
</linearGradient>
<linearGradient id="paint62_linear_2_228" x1="229.869" y1="45.6867" x2="267.159" y2="45.6867" gradientUnits="userSpaceOnUse">
<stop offset="0.06" stop-color="#088F8F"/>
<stop offset="0.2" stop-color="#047472"/>
<stop offset="0.54" stop-color="#088F8F"/>
<stop offset="0.91" stop-color="#036D6A"/>
</linearGradient>
<linearGradient id="paint63_linear_2_228" x1="228.005" y1="45.6867" x2="268.083" y2="45.6867" gradientUnits="userSpaceOnUse">
<stop offset="0.06" stop-color="#088F8F"/>
<stop offset="0.2" stop-color="#047472"/>
<stop offset="0.54" stop-color="#088F8F"/>
<stop offset="0.91" stop-color="#036D6A"/>
</linearGradient>
<linearGradient id="paint64_linear_2_228" x1="229.869" y1="40.7751" x2="267.158" y2="40.7751" gradientUnits="userSpaceOnUse">
<stop offset="0.06" stop-color="#088F8F"/>
<stop offset="0.2" stop-color="#047472"/>
<stop offset="0.54" stop-color="#088F8F"/>
<stop offset="0.91" stop-color="#036D6A"/>
</linearGradient>
<linearGradient id="paint65_linear_2_228" x1="228.005" y1="40.7751" x2="268.083" y2="40.7751" gradientUnits="userSpaceOnUse">
<stop offset="0.06" stop-color="#088F8F"/>
<stop offset="0.2" stop-color="#047472"/>
<stop offset="0.54" stop-color="#088F8F"/>
<stop offset="0.91" stop-color="#036D6A"/>
</linearGradient>
<linearGradient id="paint66_linear_2_228" x1="229.869" y1="27.6" x2="267.158" y2="27.6" gradientUnits="userSpaceOnUse">
<stop offset="0.06" stop-color="#088F8F"/>
<stop offset="0.2" stop-color="#047472"/>
<stop offset="0.54" stop-color="#088F8F"/>
<stop offset="0.91" stop-color="#036D6A"/>
</linearGradient>
<linearGradient id="paint67_linear_2_228" x1="228.005" y1="27.6" x2="268.083" y2="27.6" gradientUnits="userSpaceOnUse">
<stop offset="0.06" stop-color="#088F8F"/>
<stop offset="0.2" stop-color="#047472"/>
<stop offset="0.54" stop-color="#088F8F"/>
<stop offset="0.91" stop-color="#036D6A"/>
</linearGradient>
<linearGradient id="paint68_linear_2_228" x1="229.869" y1="33.0074" x2="267.158" y2="33.0074" gradientUnits="userSpaceOnUse">
<stop offset="0.06" stop-color="#088F8F"/>
<stop offset="0.2" stop-color="#047472"/>
<stop offset="0.54" stop-color="#088F8F"/>
<stop offset="0.91" stop-color="#036D6A"/>
</linearGradient>
<linearGradient id="paint69_linear_2_228" x1="228.005" y1="33.0074" x2="268.083" y2="33.0074" gradientUnits="userSpaceOnUse">
<stop offset="0.06" stop-color="#088F8F"/>
<stop offset="0.2" stop-color="#047472"/>
<stop offset="0.54" stop-color="#088F8F"/>
<stop offset="0.91" stop-color="#036D6A"/>
</linearGradient>
<linearGradient id="paint70_linear_2_228" x1="270.97" y1="31.52" x2="281.888" y2="31.52" gradientUnits="userSpaceOnUse">
<stop offset="0.06" stop-color="#088F8F"/>
<stop offset="0.2" stop-color="#047472"/>
<stop offset="0.54" stop-color="#088F8F"/>
<stop offset="0.91" stop-color="#036D6A"/>
</linearGradient>
<linearGradient id="paint71_linear_2_228" x1="271.894" y1="45.8727" x2="280.964" y2="45.8727" gradientUnits="userSpaceOnUse">
<stop offset="0.06" stop-color="#088F8F"/>
<stop offset="0.2" stop-color="#047472"/>
<stop offset="0.54" stop-color="#088F8F"/>
<stop offset="0.91" stop-color="#036D6A"/>
</linearGradient>
<linearGradient id="paint72_linear_2_228" x1="270.97" y1="45.8727" x2="281.888" y2="45.8727" gradientUnits="userSpaceOnUse">
<stop offset="0.06" stop-color="#088F8F"/>
<stop offset="0.2" stop-color="#047472"/>
<stop offset="0.54" stop-color="#088F8F"/>
<stop offset="0.91" stop-color="#036D6A"/>
</linearGradient>
<linearGradient id="paint73_linear_2_228" x1="177.851" y1="31.2824" x2="226.554" y2="31.2824" gradientUnits="userSpaceOnUse">
<stop offset="0.06" stop-color="#088F8F"/>
<stop offset="0.2" stop-color="#047472"/>
<stop offset="0.54" stop-color="#088F8F"/>
<stop offset="0.91" stop-color="#036D6A"/>
</linearGradient>
<linearGradient id="paint74_linear_2_228" x1="202.218" y1="18.2675" x2="202.218" y2="42.9185" gradientUnits="userSpaceOnUse">
<stop offset="0.06" stop-color="#088F8F"/>
<stop offset="0.2" stop-color="#047472"/>
<stop offset="0.54" stop-color="#088F8F"/>
<stop offset="0.91" stop-color="#036D6A"/>
</linearGradient>
<linearGradient id="paint75_linear_2_228" x1="176.064" y1="39.9901" x2="228.315" y2="39.9901" gradientUnits="userSpaceOnUse">
<stop offset="0.06" stop-color="#088F8F"/>
<stop offset="0.2" stop-color="#047472"/>
<stop offset="0.54" stop-color="#088F8F"/>
<stop offset="0.91" stop-color="#036D6A"/>
</linearGradient>
<linearGradient id="paint76_linear_2_228" x1="202.899" y1="18.2674" x2="202.899" y2="42.9185" gradientUnits="userSpaceOnUse">
<stop offset="0.06" stop-color="#088F8F"/>
<stop offset="0.2" stop-color="#047472"/>
<stop offset="0.54" stop-color="#088F8F"/>
<stop offset="0.91" stop-color="#036D6A"/>
</linearGradient>
<linearGradient id="paint77_linear_2_228" x1="176.064" y1="30.6627" x2="228.315" y2="30.6627" gradientUnits="userSpaceOnUse">
<stop offset="0.06" stop-color="#088F8F"/>
<stop offset="0.2" stop-color="#047472"/>
<stop offset="0.54" stop-color="#088F8F"/>
<stop offset="0.91" stop-color="#036D6A"/>
</linearGradient>
<linearGradient id="paint78_linear_2_228" x1="202.202" y1="18.2675" x2="202.202" y2="42.9185" gradientUnits="userSpaceOnUse">
<stop offset="0.06" stop-color="#088F8F"/>
<stop offset="0.2" stop-color="#047472"/>
<stop offset="0.54" stop-color="#088F8F"/>
<stop offset="0.91" stop-color="#036D6A"/>
</linearGradient>
<linearGradient id="paint79_linear_2_228" x1="177.851" y1="30.9726" x2="226.554" y2="30.9726" gradientUnits="userSpaceOnUse">
<stop offset="0.06" stop-color="#088F8F"/>
<stop offset="0.2" stop-color="#047472"/>
<stop offset="0.54" stop-color="#088F8F"/>
<stop offset="0.91" stop-color="#036D6A"/>
</linearGradient>
<linearGradient id="paint80_linear_2_228" x1="176.064" y1="30.9726" x2="228.315" y2="30.9726" gradientUnits="userSpaceOnUse">
<stop offset="0.06" stop-color="#088F8F"/>
<stop offset="0.2" stop-color="#047472"/>
<stop offset="0.54" stop-color="#088F8F"/>
<stop offset="0.91" stop-color="#036D6A"/>
</linearGradient>
<linearGradient id="paint81_linear_2_228" x1="202.213" y1="18.2675" x2="202.213" y2="42.9185" gradientUnits="userSpaceOnUse">
<stop offset="0.06" stop-color="#088F8F"/>
<stop offset="0.2" stop-color="#047472"/>
<stop offset="0.54" stop-color="#088F8F"/>
<stop offset="0.91" stop-color="#036D6A"/>
</linearGradient>
<linearGradient id="paint82_linear_2_228" x1="229.869" y1="36.9894" x2="267.158" y2="36.9894" gradientUnits="userSpaceOnUse">
<stop offset="0.06" stop-color="#088F8F"/>
<stop offset="0.2" stop-color="#047472"/>
<stop offset="0.54" stop-color="#088F8F"/>
<stop offset="0.91" stop-color="#036D6A"/>
</linearGradient>
<linearGradient id="paint83_linear_2_228" x1="234.425" y1="18.2675" x2="234.425" y2="42.9185" gradientUnits="userSpaceOnUse">
<stop offset="0.06" stop-color="#088F8F"/>
<stop offset="0.2" stop-color="#047472"/>
<stop offset="0.54" stop-color="#088F8F"/>
<stop offset="0.91" stop-color="#036D6A"/>
</linearGradient>
<linearGradient id="paint84_linear_2_228" x1="229.869" y1="40.4136" x2="267.158" y2="40.4136" gradientUnits="userSpaceOnUse">
<stop offset="0.06" stop-color="#088F8F"/>
<stop offset="0.2" stop-color="#047472"/>
<stop offset="0.54" stop-color="#088F8F"/>
<stop offset="0.91" stop-color="#036D6A"/>
</linearGradient>
<linearGradient id="paint85_linear_2_228" x1="248.906" y1="18.2675" x2="248.906" y2="42.9185" gradientUnits="userSpaceOnUse">
<stop offset="0.06" stop-color="#088F8F"/>
<stop offset="0.2" stop-color="#047472"/>
<stop offset="0.54" stop-color="#088F8F"/>
<stop offset="0.91" stop-color="#036D6A"/>
</linearGradient>
<linearGradient id="paint86_linear_2_228" x1="229.869" y1="25.9887" x2="267.158" y2="25.9887" gradientUnits="userSpaceOnUse">
<stop offset="0.06" stop-color="#088F8F"/>
<stop offset="0.2" stop-color="#047472"/>
<stop offset="0.54" stop-color="#088F8F"/>
<stop offset="0.91" stop-color="#036D6A"/>
</linearGradient>
<linearGradient id="paint87_linear_2_228" x1="248.597" y1="18.2675" x2="248.597" y2="42.9185" gradientUnits="userSpaceOnUse">
<stop offset="0.06" stop-color="#088F8F"/>
<stop offset="0.2" stop-color="#047472"/>
<stop offset="0.54" stop-color="#088F8F"/>
<stop offset="0.91" stop-color="#036D6A"/>
</linearGradient>
<linearGradient id="paint88_linear_2_228" x1="228.005" y1="34.9855" x2="268.083" y2="34.9855" gradientUnits="userSpaceOnUse">
<stop offset="0.06" stop-color="#088F8F"/>
<stop offset="0.2" stop-color="#047472"/>
<stop offset="0.54" stop-color="#088F8F"/>
<stop offset="0.91" stop-color="#036D6A"/>
</linearGradient>
<linearGradient id="paint89_linear_2_228" x1="248.581" y1="18.2675" x2="248.581" y2="42.9185" gradientUnits="userSpaceOnUse">
<stop offset="0.06" stop-color="#088F8F"/>
<stop offset="0.2" stop-color="#047472"/>
<stop offset="0.54" stop-color="#088F8F"/>
<stop offset="0.91" stop-color="#036D6A"/>
</linearGradient>
<linearGradient id="paint90_linear_2_228" x1="228.005" y1="23.5561" x2="268.083" y2="23.5561" gradientUnits="userSpaceOnUse">
<stop offset="0.06" stop-color="#088F8F"/>
<stop offset="0.2" stop-color="#047472"/>
<stop offset="0.54" stop-color="#088F8F"/>
<stop offset="0.91" stop-color="#036D6A"/>
</linearGradient>
<linearGradient id="paint91_linear_2_228" x1="248.514" y1="18.2675" x2="248.514" y2="42.9185" gradientUnits="userSpaceOnUse">
<stop offset="0.06" stop-color="#088F8F"/>
<stop offset="0.2" stop-color="#047472"/>
<stop offset="0.54" stop-color="#088F8F"/>
<stop offset="0.91" stop-color="#036D6A"/>
</linearGradient>
<linearGradient id="paint92_linear_2_228" x1="228.005" y1="27.6" x2="268.083" y2="27.6" gradientUnits="userSpaceOnUse">
<stop offset="0.06" stop-color="#088F8F"/>
<stop offset="0.2" stop-color="#047472"/>
<stop offset="0.54" stop-color="#088F8F"/>
<stop offset="0.91" stop-color="#036D6A"/>
</linearGradient>
<linearGradient id="paint93_linear_2_228" x1="234.425" y1="18.2675" x2="234.425" y2="42.9184" gradientUnits="userSpaceOnUse">
<stop offset="0.06" stop-color="#088F8F"/>
<stop offset="0.2" stop-color="#047472"/>
<stop offset="0.54" stop-color="#088F8F"/>
<stop offset="0.91" stop-color="#036D6A"/>
</linearGradient>
<linearGradient id="paint94_linear_2_228" x1="229.869" y1="31.1585" x2="267.148" y2="31.1585" gradientUnits="userSpaceOnUse">
<stop offset="0.06" stop-color="#088F8F"/>
<stop offset="0.2" stop-color="#047472"/>
<stop offset="0.54" stop-color="#088F8F"/>
<stop offset="0.91" stop-color="#036D6A"/>
</linearGradient>
<linearGradient id="paint95_linear_2_228" x1="228.005" y1="31.1585" x2="268.083" y2="31.1585" gradientUnits="userSpaceOnUse">
<stop offset="0.06" stop-color="#088F8F"/>
<stop offset="0.2" stop-color="#047472"/>
<stop offset="0.54" stop-color="#088F8F"/>
<stop offset="0.91" stop-color="#036D6A"/>
</linearGradient>
<linearGradient id="paint96_linear_2_228" x1="248.509" y1="18.2675" x2="248.509" y2="42.9185" gradientUnits="userSpaceOnUse">
<stop offset="0.06" stop-color="#088F8F"/>
<stop offset="0.2" stop-color="#047472"/>
<stop offset="0.54" stop-color="#088F8F"/>
<stop offset="0.91" stop-color="#036D6A"/>
</linearGradient>
<linearGradient id="paint97_linear_2_228" x1="271.894" y1="31.52" x2="280.964" y2="31.52" gradientUnits="userSpaceOnUse">
<stop offset="0.06" stop-color="#088F8F"/>
<stop offset="0.2" stop-color="#047472"/>
<stop offset="0.54" stop-color="#088F8F"/>
<stop offset="0.91" stop-color="#036D6A"/>
</linearGradient>
<linearGradient id="paint98_linear_2_228" x1="276.429" y1="18.2675" x2="276.429" y2="42.9185" gradientUnits="userSpaceOnUse">
<stop offset="0.06" stop-color="#088F8F"/>
<stop offset="0.2" stop-color="#047472"/>
<stop offset="0.54" stop-color="#088F8F"/>
<stop offset="0.91" stop-color="#036D6A"/>
</linearGradient>
<linearGradient id="paint99_linear_2_228" x1="270.97" y1="16.558" x2="281.888" y2="16.558" gradientUnits="userSpaceOnUse">
<stop offset="0.06" stop-color="#088F8F"/>
<stop offset="0.2" stop-color="#047472"/>
<stop offset="0.54" stop-color="#088F8F"/>
<stop offset="0.91" stop-color="#036D6A"/>
</linearGradient>
<linearGradient id="paint100_linear_2_228" x1="276.429" y1="18.2675" x2="276.429" y2="42.9185" gradientUnits="userSpaceOnUse">
<stop offset="0.06" stop-color="#088F8F"/>
<stop offset="0.2" stop-color="#047472"/>
<stop offset="0.54" stop-color="#088F8F"/>
<stop offset="0.91" stop-color="#036D6A"/>
</linearGradient>
<linearGradient id="paint101_linear_2_228" x1="271.894" y1="31.2153" x2="280.964" y2="31.2153" gradientUnits="userSpaceOnUse">
<stop offset="0.06" stop-color="#088F8F"/>
<stop offset="0.2" stop-color="#047472"/>
<stop offset="0.54" stop-color="#088F8F"/>
<stop offset="0.91" stop-color="#036D6A"/>
</linearGradient>
<linearGradient id="paint102_linear_2_228" x1="270.97" y1="31.2153" x2="281.888" y2="31.2153" gradientUnits="userSpaceOnUse">
<stop offset="0.06" stop-color="#088F8F"/>
<stop offset="0.2" stop-color="#047472"/>
<stop offset="0.54" stop-color="#088F8F"/>
<stop offset="0.91" stop-color="#036D6A"/>
</linearGradient>
<linearGradient id="paint103_linear_2_228" x1="276.429" y1="18.2675" x2="276.429" y2="42.9185" gradientUnits="userSpaceOnUse">
<stop offset="0.06" stop-color="#088F8F"/>
<stop offset="0.2" stop-color="#047472"/>
<stop offset="0.54" stop-color="#088F8F"/>
<stop offset="0.91" stop-color="#036D6A"/>
</linearGradient>
<clipPath id="clip0_2_228">
<rect width="291.675" height="69.3874" fill="white"/>
</clipPath>
</defs>
</svg>
